<svg width="1144" height="722" viewBox="0 0 1144 722" fill="none" xmlns="http://www.w3.org/2000/svg">
<path d="M487.076 63.9366C483.351 63.9366 479.983 63.3498 476.973 62.1762C474.013 60.9515 470.977 59.1911 467.865 56.8949L470.773 52.6087C472.814 54.0374 474.677 55.211 476.361 56.1295C478.044 57.048 479.728 57.7113 481.412 58.1195C483.147 58.5278 485.086 58.7319 487.229 58.7319C490.393 58.7319 493.48 58.3492 496.491 57.5838C499.552 56.8184 502.206 56.0785 504.451 55.3641C506.747 54.6497 509.298 53.9354 512.105 53.221C514.911 52.5066 517.845 52.1494 520.907 52.1494C524.683 52.1494 528.076 52.7618 531.087 53.9864C534.097 55.16 537.159 56.8949 540.271 59.1911L537.057 63.3243C535.322 61.9976 533.612 60.9005 531.929 60.033C530.245 59.1656 528.459 58.5022 526.571 58.043C524.683 57.5838 522.463 57.3541 519.912 57.3541C517.565 57.3541 515.166 57.7113 512.717 58.4257C510.268 59.0891 508.048 59.7269 506.058 60.3392C503.558 61.1556 500.598 61.9721 497.179 62.7885C493.812 63.5539 490.444 63.9366 487.076 63.9366ZM577.61 82.7654L572.864 80.2396C574.089 78.0454 575.39 76.3105 576.768 75.0349C578.145 73.7082 579.472 72.6366 580.748 71.8202C581.258 71.514 581.513 71.2589 581.513 71.0548C581.513 70.8507 581.054 70.57 580.135 70.2129C579.268 69.8557 578.401 69.524 577.533 69.2178C576.717 68.8606 576.028 68.3759 575.467 67.7636C574.956 67.1513 574.701 66.2838 574.701 65.1612C574.701 64.1407 574.931 63.2987 575.39 62.6354C575.9 61.9721 576.436 61.4618 576.997 61.1046C577.61 60.6964 578.069 60.4157 578.375 60.2627C578.936 60.0075 579.447 59.7779 579.906 59.5738C580.365 59.3187 580.595 59.1146 580.595 58.9615C580.595 58.7574 580.135 58.4767 579.217 58.1195C577.737 57.5583 576.538 56.7929 575.62 55.8234C574.701 54.8538 574.242 53.6037 574.242 52.0729C574.242 49.7767 574.778 47.6846 575.849 45.7966C573.808 46.7661 571.589 47.6591 569.19 48.4755C566.843 49.2409 564.368 49.6236 561.766 49.6236C558.449 49.6236 555.617 49.0368 553.27 47.8632C550.974 46.6896 548.652 45.1078 546.305 43.1177L549.749 38.9846C551.484 40.6174 553.295 41.9441 555.183 42.9646C557.122 43.9341 559.368 44.4189 561.919 44.4189C564.062 44.4189 566.562 43.8831 569.42 42.8116C572.328 41.689 575.084 40.4388 577.686 39.0611C581.666 36.969 585.187 35.4892 588.249 34.6218C591.361 33.7543 594.193 33.3206 596.745 33.3206C599.602 33.3206 602.153 33.6523 604.399 34.3156C606.644 34.928 608.94 35.8719 611.287 37.1476L608.914 41.8165C606.873 40.745 604.934 39.9286 603.097 39.3673C601.312 38.806 599.296 38.5253 597.051 38.5253C593.428 38.5253 590.315 39.1121 587.713 40.2857C585.162 41.4594 583.197 42.9902 581.819 44.8781C580.493 46.7661 579.829 48.8072 579.829 51.0013C579.829 51.8178 580.11 52.4556 580.671 52.9148C581.284 53.323 582.126 53.7313 583.197 54.1395C584.677 54.7008 585.774 55.3386 586.488 56.053C587.254 56.7163 587.636 57.5583 587.636 58.5788C587.636 59.5993 587.05 60.5178 585.876 61.3342C584.702 62.0996 583.58 62.814 582.508 63.4773C581.845 63.8856 581.411 64.2172 581.207 64.4724C581.003 64.6765 580.901 64.8295 580.901 64.9316C580.901 65.0847 581.131 65.2633 581.59 65.4674C582.049 65.6205 582.534 65.8246 583.044 66.0797C584.371 66.641 585.595 67.2278 586.718 67.8401C587.841 68.4014 588.402 69.2944 588.402 70.519C588.402 71.6416 588.045 72.6366 587.33 73.5041C586.616 74.3205 585.595 75.1624 584.269 76.0299C583.146 76.7443 582.023 77.6372 580.901 78.7088C579.778 79.7293 578.681 81.0815 577.61 82.7654ZM581.757 28.1924C580.634 28.1924 579.69 27.8353 578.925 27.1209C578.159 26.4065 577.776 25.335 577.776 23.9062C577.776 22.4264 578.159 21.3549 578.925 20.6915C579.69 19.9772 580.634 19.62 581.757 19.62C582.777 19.62 583.696 19.9772 584.512 20.6915C585.277 21.3549 585.66 22.4264 585.66 23.9062C585.66 25.335 585.277 26.4065 584.512 27.1209C583.696 27.8353 582.777 28.1924 581.757 28.1924ZM632.648 82C629.383 82 626.576 81.7704 624.229 81.3111C621.933 80.8519 619.764 80.2396 617.723 79.4742L619.637 74.4991C621.525 75.3155 623.668 75.9023 626.066 76.2595C628.515 76.6167 630.684 76.7953 632.572 76.7953C635.582 76.7953 638.032 76.285 639.92 75.2645C641.808 74.244 643.211 72.9428 644.129 71.361C645.048 69.7791 645.507 68.1718 645.507 66.5389C645.507 63.8856 644.589 61.8445 642.752 60.4157C640.966 58.936 638.21 58.1961 634.485 58.1961H629.204V52.9914H632.725C635.429 52.9914 637.598 52.5832 639.231 51.7667C640.915 50.8993 642.114 49.8532 642.828 48.6286C643.594 47.3529 643.976 46.1028 643.976 44.8781C643.976 43.1943 643.313 41.74 641.986 40.5154C640.66 39.2907 638.44 38.6784 635.327 38.6784C633.286 38.6784 631.296 38.9335 629.357 39.4438C627.418 39.903 625.785 40.4643 624.459 41.1277L622.316 36.3057C624.612 35.2341 626.755 34.4942 628.745 34.086C630.735 33.6778 633.031 33.4737 635.633 33.4737C641.042 33.4737 644.971 34.9024 647.421 37.7599C648.747 36.9435 650.049 36.4077 651.324 36.1526C652.651 35.8464 653.901 35.6934 655.075 35.6934C659.31 35.6934 662.295 37.3007 664.03 40.5154C665.765 43.73 666.632 48.6031 666.632 55.1345V66.1562C666.632 68.6055 666.811 70.6211 667.168 72.2029C667.576 73.7847 668.444 74.9583 669.77 75.7237C671.148 76.4381 673.266 76.7953 676.123 76.7953V82H675.358C671.174 82 668.035 81.3367 665.943 80.01C663.851 78.6833 662.448 76.8208 661.734 74.4225C661.07 72.0243 660.739 69.2689 660.739 66.1562V55.1345C660.739 51.4606 660.509 48.6031 660.05 46.562C659.59 44.4699 658.876 43.0157 657.907 42.1992C656.988 41.3318 655.815 40.8981 654.386 40.8981C653.671 40.8981 652.88 41.0256 652.013 41.2808C651.146 41.4849 650.355 41.791 649.64 42.1992C649.793 42.9646 649.87 43.7556 649.87 44.572C649.87 46.8682 649.309 48.8837 648.186 50.6186C647.114 52.3535 645.431 53.7313 643.134 54.7518C645.482 55.4151 647.421 56.7929 648.951 58.8849C650.533 60.926 651.324 63.4518 651.324 66.4624C651.324 69.7281 650.508 72.5346 648.875 74.8818C647.293 77.178 645.099 78.9384 642.292 80.163C639.486 81.3877 636.271 82 632.648 82ZM644.917 28.1924C643.794 28.1924 642.85 27.8353 642.085 27.1209C641.32 26.4065 640.937 25.335 640.937 23.9062C640.937 22.4264 641.32 21.3549 642.085 20.6915C642.85 19.9772 643.794 19.62 644.917 19.62C645.937 19.62 646.856 19.9772 647.672 20.6915C648.438 21.3549 648.82 22.4264 648.82 23.9062C648.82 25.335 648.438 26.4065 647.672 27.1209C646.856 27.8353 645.937 28.1924 644.917 28.1924Z" fill="#423E33"/>
<path fill-rule="evenodd" clip-rule="evenodd" d="M202.154 384.948C202.178 389.734 202.184 389.734 202.184 389.734L202.192 389.734L202.212 389.734L202.27 389.733C202.316 389.733 202.378 389.732 202.454 389.73C202.608 389.726 202.821 389.719 203.091 389.707C203.63 389.683 204.394 389.638 205.352 389.552C207.265 389.38 209.959 389.046 213.177 388.392C219.594 387.09 228.197 384.499 236.84 379.323C254.43 368.786 271.393 347.983 271.393 308.052L271.393 308.029C271.309 290.858 267.382 277.662 261.296 267.58C255.215 257.504 247.136 250.797 239.137 246.355C231.164 241.929 223.25 239.737 217.36 238.645C214.405 238.097 211.932 237.821 210.176 237.681C209.297 237.611 208.595 237.575 208.1 237.557C207.852 237.548 207.656 237.543 207.515 237.54L207.344 237.538L207.291 237.538L207.272 237.538L207.265 237.538C207.265 237.538 207.259 237.538 207.259 242.324L207.259 237.538H96.0269L102.799 245.438C107.829 251.307 110.54 258.749 111.966 265.315C113.382 271.836 113.452 277.127 113.452 278.379V428.661C113.452 429.913 113.382 435.204 111.966 441.725C110.54 448.291 107.829 455.733 102.799 461.602L96.0269 469.502H182.411L176.619 461.832C171.301 454.789 168.553 446.452 167.157 439.697C166.464 436.348 166.119 433.46 165.948 431.425C165.862 430.409 165.82 429.611 165.8 429.079C165.789 428.814 165.784 428.615 165.782 428.49L165.78 428.359L165.78 428.342V389.734L202.154 389.735L202.178 389.734L202.154 384.948ZM118.239 278.379C118.239 275.507 117.919 255.725 106.433 242.324C107.739 243.848 108.901 245.455 109.935 247.11C117.988 260.006 118.239 275.834 118.239 278.379ZM183.321 268.807L183.325 268.807L183.372 268.807C183.426 268.808 183.517 268.81 183.645 268.814C183.9 268.823 184.297 268.841 184.815 268.88C185.853 268.956 187.368 269.111 189.2 269.426C192.885 270.058 197.728 271.314 202.516 273.78C207.282 276.234 211.923 279.847 215.386 285.197C218.835 290.524 221.298 297.853 221.298 308.052C221.298 334.864 212.795 348.891 201.804 356.578C191.712 363.635 178.736 365.941 165.78 366.59V268.807L183.321 268.807Z" fill="#D2CDBC"/>
<path d="M1072.53 237.538H1006.4L1010.71 244.772C1014.55 251.22 1017.12 256.778 1018.77 263.111C1020.42 269.48 1021.2 276.857 1021.2 286.994V380.513L921.924 237.538H867.461L871.553 244.698C875.263 251.192 877.847 256.777 879.538 263.136C881.234 269.514 882.09 276.891 882.09 286.994V420.046C882.09 430.149 881.234 437.526 879.538 443.903C877.847 450.263 875.263 455.848 871.553 462.342L867.461 469.502H933.093L929.001 462.342C925.272 455.816 922.609 450.22 920.842 443.854C919.074 437.483 918.145 430.118 918.145 420.046V327.988L1004.79 448.247C1015.94 465.922 1032.53 474.339 1053.27 473.648L1057.9 473.493V285.079C1057.9 267.456 1061.16 257.421 1068.43 244.698L1072.53 237.538Z" fill="#D2CDBC"/>
<path fill-rule="evenodd" clip-rule="evenodd" d="M822.867 261.321C841.522 280.952 852.581 311.253 852.581 353.998C852.581 397.204 841.53 427.298 822.834 446.589C804.123 465.895 778.465 473.649 750.797 473.649C723.128 473.649 697.545 465.894 678.912 446.581C660.299 427.288 649.332 397.195 649.332 353.998C649.332 310.644 660.297 280.324 678.894 260.835C697.517 241.319 723.102 233.389 750.797 233.389C778.54 233.389 804.187 241.665 822.867 261.321ZM784.938 439.509C793.213 439.509 798.068 436.45 801.126 431.666C804.425 426.506 805.996 418.749 805.996 408.878C805.996 406.672 806.012 404.345 806.028 401.926V401.889C806.134 385.644 806.268 365.297 802.026 350.186L802.015 350.145L802.004 350.104C795.778 326.317 789.248 307.917 776.148 295.261C763.239 282.788 743.143 275.187 708.042 275.187C702.718 275.187 699.059 277.315 696.493 281.851C693.697 286.794 692.095 294.849 692.405 306.649L692.407 306.712V306.775C692.407 322.201 695.191 341.231 700.853 361.991L700.858 362.009C706.543 383.171 714.198 402.526 727.013 416.581C739.63 430.419 757.608 439.509 784.938 439.509Z" fill="#D2CDBC"/>
<path d="M646.193 445.325L654.287 436.641L642.433 437.282C637.726 437.537 633.163 437.919 628.672 438.296C621.349 438.91 614.216 439.509 606.956 439.509C579.626 439.509 561.648 430.419 549.031 416.581C536.217 402.526 528.562 383.171 522.876 362.009L522.867 361.973C517.211 341.551 514.425 322.205 514.425 307.094V307.032L514.424 306.97C514.113 295.001 515.716 286.863 518.518 281.879C521.086 277.31 524.741 275.187 530.06 275.187C552.098 275.187 567.536 278.632 578.79 284.462C589.944 290.24 597.368 298.557 603.069 309.058L606.484 315.351L647.753 264.44L644.918 261.396C626.534 241.65 600.529 233.389 572.815 233.389C545.12 233.389 519.535 241.319 500.912 260.835C482.315 280.324 471.351 310.644 471.351 353.998C471.351 397.195 482.317 427.288 500.93 446.581C519.563 465.894 545.146 473.649 572.815 473.649C601.149 473.649 627.48 465.399 646.193 445.325Z" fill="#D2CDBC"/>
<path d="M409.779 237.857H490.767L481.607 246.184C467.882 258.661 457.665 270.744 448.039 286.892L448.018 286.927C443.122 294.982 431.998 314.526 422.051 332.142C417.089 340.932 412.434 349.214 409.021 355.299C407.314 358.341 405.917 360.834 404.948 362.566L404.044 364.18V417.813C404.044 429.304 404.758 437.133 406.444 443.657C408.109 450.097 410.786 455.519 415.074 462.105L419.891 469.503H332.394L340.312 461.377C345.747 455.799 348.417 450.552 349.824 443.833C351.297 436.799 351.397 428.165 351.397 415.58V367.743L344.871 356.62C340.519 349.202 334.646 339.191 328.563 328.821C316.419 308.115 303.433 285.967 300.056 280.178C293.576 269.384 283.658 256.678 272.22 246.167L263.177 237.857H359.677L354.35 245.403C350.592 250.728 349.011 254.004 348.702 257.15C348.398 260.246 349.257 264.022 352.457 270.434C354.544 274.325 357.267 279.545 360.474 285.693C367.225 298.632 376.121 315.685 385.746 333.113L386.517 331.655C389.494 326.025 393.534 318.394 397.783 310.394C406.229 294.494 415.563 277.02 418.987 270.979C421.849 265.521 422.672 261.262 422.226 257.576C421.776 253.854 419.955 250.067 416.321 245.707L409.779 237.857Z" fill="#D2CDBC"/>
<path fill-rule="evenodd" clip-rule="evenodd" d="M208.533 378.57C208.556 383.356 208.563 383.356 208.563 383.356L208.57 383.356L208.59 383.356L208.648 383.355C208.694 383.355 208.756 383.354 208.833 383.352C208.986 383.348 209.2 383.341 209.469 383.329C210.008 383.305 210.773 383.26 211.73 383.174C213.643 383.002 216.338 382.667 219.555 382.014C225.973 380.712 234.576 378.121 243.218 372.944C260.808 362.408 277.771 341.605 277.771 301.674L277.771 301.651C277.688 284.48 273.76 271.284 267.675 261.202C261.594 251.126 253.515 244.419 245.515 239.977C237.543 235.55 229.628 233.359 223.738 232.267C220.784 231.719 218.31 231.442 216.554 231.303C215.675 231.233 214.973 231.197 214.478 231.179C214.23 231.17 214.034 231.165 213.893 231.162L213.723 231.16L213.669 231.159L213.651 231.159L213.644 231.159C213.644 231.159 213.638 231.159 213.638 235.945L213.638 231.159H102.405L109.177 239.06C114.208 244.929 116.919 252.371 118.344 258.937C119.76 265.458 119.831 270.748 119.831 272V422.283C119.831 423.535 119.76 428.826 118.344 435.346C116.919 441.912 114.208 449.355 109.177 455.223L102.405 463.124H188.789L182.998 455.454C177.679 448.411 174.931 440.074 173.535 433.319C172.843 429.97 172.498 427.082 172.326 425.047C172.24 424.031 172.198 423.233 172.178 422.701C172.168 422.436 172.163 422.237 172.161 422.112L172.159 421.98L172.158 421.964V383.356L208.533 383.356L208.556 383.356L208.533 378.57ZM124.617 272C124.617 269.129 124.298 249.346 112.811 235.945C114.118 237.47 115.28 239.076 116.313 240.731C124.366 253.628 124.617 269.455 124.617 272ZM189.7 262.428L189.703 262.428L189.751 262.429C189.804 262.43 189.896 262.432 190.023 262.436C190.278 262.445 190.675 262.463 191.193 262.501C192.231 262.578 193.747 262.733 195.578 263.047C199.263 263.68 204.106 264.936 208.894 267.401C213.66 269.855 218.301 273.469 221.765 278.819C225.213 284.146 227.677 291.475 227.677 301.674C227.677 328.485 219.173 342.513 208.183 350.199C198.091 357.257 185.114 359.563 172.158 360.212V262.428L189.7 262.428Z" fill="url(#paint0_linear_2223_8)"/>
<path d="M1078.9 231.159H1012.78L1017.09 238.393C1020.93 244.842 1023.5 250.4 1025.14 256.733C1026.8 263.101 1027.58 270.479 1027.58 280.615V374.135L928.303 231.159H873.839L877.931 238.32C881.642 244.814 884.226 250.399 885.917 256.758C887.612 263.135 888.468 270.513 888.468 280.615V413.668C888.468 423.771 887.612 431.148 885.917 437.525C884.226 443.885 881.642 449.47 877.931 455.964L873.839 463.124H939.471L935.379 455.964C931.65 449.438 928.987 443.842 927.221 437.475C925.453 431.105 924.523 423.74 924.523 413.668V321.61L1011.17 441.869C1022.31 459.544 1038.91 467.961 1059.65 467.269L1064.28 467.115V278.701C1064.28 261.078 1067.54 251.043 1074.81 238.32L1078.9 231.159Z" fill="url(#paint1_linear_2223_8)"/>
<path fill-rule="evenodd" clip-rule="evenodd" d="M829.245 254.943C847.901 274.573 858.959 304.875 858.959 347.619C858.959 390.826 847.908 420.92 829.213 440.21C810.502 459.517 784.843 467.271 757.175 467.271C729.507 467.271 703.923 459.516 685.29 440.203C666.677 420.91 655.711 390.817 655.711 347.619C655.711 304.266 666.675 273.946 685.272 254.457C703.896 234.94 729.48 227.01 757.175 227.01C784.918 227.01 810.566 235.287 829.245 254.943ZM791.316 433.13C799.591 433.13 804.447 430.072 807.505 425.288C810.803 420.128 812.375 412.371 812.375 402.5C812.375 400.294 812.39 397.967 812.406 395.548V395.511C812.513 379.266 812.646 358.918 808.405 343.808L808.394 343.767L808.383 343.726C802.156 319.938 795.626 301.539 782.526 288.882C769.617 276.41 749.521 268.809 714.42 268.809C709.096 268.809 705.438 270.937 702.871 275.473C700.075 280.415 698.473 288.47 698.784 300.271L698.785 300.334V300.397C698.785 315.823 701.57 334.853 707.232 355.613L707.237 355.631C712.922 376.793 720.577 396.148 733.392 410.203C746.008 424.041 763.987 433.13 791.316 433.13Z" fill="url(#paint2_linear_2223_8)"/>
<path d="M652.571 438.947L660.666 430.263L648.812 430.904C644.104 431.158 639.541 431.541 635.051 431.918C627.727 432.532 620.594 433.13 613.334 433.13C586.005 433.13 568.027 424.041 555.41 410.203C542.595 396.148 534.94 376.793 529.255 355.631L529.245 355.595C523.59 335.173 520.804 315.827 520.804 300.716V300.654L520.802 300.592C520.491 288.623 522.095 280.485 524.896 275.501C527.464 270.932 531.119 268.809 536.438 268.809C558.476 268.809 573.914 272.254 585.168 278.084C596.322 283.862 603.746 292.179 609.447 302.68L612.863 308.972L654.131 258.062L651.297 255.018C632.912 235.272 606.907 227.01 579.194 227.01C551.499 227.01 525.914 234.94 507.29 254.457C488.693 273.946 477.729 304.266 477.729 347.619C477.729 390.817 488.696 420.91 507.308 440.203C525.941 459.516 551.525 467.271 579.194 467.271C607.527 467.271 633.858 459.02 652.571 438.947Z" fill="url(#paint3_linear_2223_8)"/>
<path d="M416.158 231.479H497.146L487.985 239.806C474.261 252.283 464.044 264.366 454.417 280.514L454.396 280.549C449.5 288.604 438.377 308.148 428.43 325.764C423.467 334.554 418.813 342.836 415.399 348.92C413.692 351.963 412.296 354.455 411.326 356.187L410.422 357.802V411.435C410.422 422.926 411.137 430.755 412.823 437.279C414.487 443.719 417.164 449.141 421.453 455.727L426.27 463.124H338.772L346.69 454.998C352.125 449.42 354.795 444.174 356.202 437.455C357.675 430.421 357.776 421.787 357.776 409.201V361.365L351.25 350.242C346.897 342.823 341.024 332.812 334.942 322.442C322.797 301.737 309.811 279.589 306.434 273.8C299.954 263.006 290.036 250.299 278.598 239.789L269.555 231.479H366.055L360.729 239.025C356.97 244.349 355.39 247.626 355.081 250.772C354.777 253.868 355.636 257.644 358.835 264.056C360.922 267.947 363.645 273.167 366.853 279.315C373.603 292.254 382.499 309.306 392.124 326.735L392.895 325.277C395.872 319.647 399.912 312.016 404.162 304.016C412.607 288.115 421.942 270.642 425.366 264.601C428.227 259.142 429.05 254.884 428.604 251.198C428.154 247.476 426.333 243.689 422.699 239.329L416.158 231.479Z" fill="url(#paint4_linear_2223_8)"/>
<path d="M726.283 683.839H593.973C593.973 660.38 673.109 577.49 673.109 552.467C673.109 547.15 668.104 545.586 663.725 545.586C633.384 545.586 620.873 578.429 620.873 578.429L604.608 539.643C622.124 524.316 636.2 524.316 651.526 524.316C674.986 524.316 711.269 546.524 710.331 570.922C710.018 587.813 654.654 668.2 654.654 668.2C654.654 668.2 657.782 668.2 661.848 668.2C670.607 668.2 683.744 667.887 686.559 666.323C690.938 663.821 710.331 644.428 710.331 644.428L726.283 683.839Z" fill="#D2CDBC"/>
<path d="M799.139 523.065C850.437 523.065 868.892 561.851 868.892 606.267C868.892 665.385 837.3 686.655 799.139 686.655C760.666 686.655 729.7 665.072 729.7 604.703C729.7 544.022 760.666 523.065 799.139 523.065ZM770.362 609.395C772.865 618.153 775.054 626.599 777.869 634.106L810.4 563.415C803.205 554.344 792.258 548.401 772.552 548.401C763.794 548.401 760.353 553.093 760.353 562.164C760.353 571.547 765.671 591.566 770.362 609.395ZM823.85 663.821C832.608 663.821 835.423 653.812 835.423 646.93C835.423 636.295 830.731 617.841 826.039 603.139C823.537 595.32 821.66 587.187 818.845 579.68L786.002 648.807C793.196 658.191 804.457 663.821 823.85 663.821Z" fill="#D2CDBC"/>
<path d="M1003.34 683.839H871.025C871.025 660.38 950.161 577.49 950.161 552.467C950.161 547.15 945.156 545.586 940.777 545.586C910.437 545.586 897.925 578.429 897.925 578.429L881.66 539.643C899.176 524.316 913.252 524.316 928.578 524.316C952.038 524.316 988.322 546.524 987.383 570.922C987.07 587.813 931.706 668.2 931.706 668.2C931.706 668.2 934.834 668.2 938.901 668.2C947.659 668.2 960.796 667.887 963.611 666.323C967.99 663.821 987.383 644.428 987.383 644.428L1003.34 683.839Z" fill="#D2CDBC"/>
<path d="M1050.02 588.125C1052.52 591.253 1136.35 604.078 1136.66 652.56V652.873C1136.66 676.645 1096.62 722 1070.97 722C1042.82 722 1019.05 701.356 1010.61 683.214C1010.61 683.214 1048.77 690.721 1073.16 690.721C1087.55 690.721 1096.62 687.906 1096.62 671.641C1096.62 635.67 1028.12 613.149 1028.12 613.149V530.259H1128.21L1115.7 574.988L1100.38 560.287C1097.56 557.472 1094.43 555.908 1090.37 555.595H1058.46C1054.71 570.609 1050.02 588.125 1050.02 588.125Z" fill="#D2CDBC"/>
<path d="M536.507 669.401L542.216 663.277L533.856 663.729C530.536 663.908 527.318 664.178 524.151 664.444C518.986 664.877 513.955 665.299 508.835 665.299C489.561 665.299 476.881 658.889 467.983 649.129C458.945 639.217 453.547 625.566 449.537 610.641L449.53 610.616C445.541 596.213 443.577 582.569 443.577 571.912V571.868L443.575 571.824C443.356 563.383 444.487 557.644 446.463 554.129C448.274 550.906 450.852 549.409 454.603 549.409C470.146 549.409 481.034 551.839 488.971 555.95C496.837 560.025 502.073 565.891 506.094 573.297L508.503 577.735L537.608 541.83L535.609 539.683C522.643 525.756 504.302 519.93 484.757 519.93C465.225 519.93 447.181 525.523 434.046 539.287C420.93 553.032 413.198 574.416 413.198 604.991C413.198 635.457 420.932 656.68 434.059 670.287C447.2 683.908 465.243 689.377 484.757 689.377C504.74 689.377 523.31 683.558 536.507 669.401Z" fill="#D2CDBC"/>
<path fill-rule="evenodd" clip-rule="evenodd" d="M237.399 626.82C237.415 630.195 237.42 630.195 237.42 630.195L237.425 630.195L237.44 630.195L237.48 630.194C237.513 630.194 237.556 630.193 237.611 630.192L237.731 630.189L237.895 630.183L238.059 630.176C238.44 630.159 238.979 630.127 239.654 630.066C241.003 629.945 242.904 629.709 245.173 629.249C249.699 628.33 255.766 626.503 261.861 622.852C274.267 615.421 286.23 600.75 286.23 572.588L286.23 572.571C286.171 560.461 283.402 551.155 279.11 544.044C274.821 536.938 269.123 532.208 263.481 529.075C257.858 525.953 252.277 524.407 248.123 523.637C246.039 523.251 244.295 523.056 243.056 522.957C242.436 522.908 241.941 522.883 241.592 522.87C241.499 522.866 241.417 522.864 241.344 522.862C241.281 522.86 241.226 522.859 241.179 522.858L241.059 522.856L241.022 522.856L241.009 522.856L241.003 522.856C241.003 522.856 240.999 522.856 240.999 526.232L240.999 522.856H162.551L167.327 528.428C170.875 532.567 172.787 537.816 173.792 542.447C174.791 547.046 174.841 550.777 174.841 551.66V657.649C174.841 658.532 174.791 662.263 173.792 666.862C172.787 671.493 170.875 676.741 167.327 680.88L162.551 686.453H223.475L219.39 681.043C215.639 676.076 213.701 670.196 212.716 665.432C212.228 663.07 211.985 661.033 211.864 659.598C211.803 658.882 211.774 658.318 211.759 657.944L211.756 657.847L211.753 657.769C211.75 657.667 211.748 657.586 211.747 657.528L211.745 657.435L211.745 657.424V657.421L211.753 657.769C211.669 656.59 211.745 657.424 211.745 657.424V630.195L237.399 630.195L237.415 630.195L237.399 626.82ZM224.152 544.909L224.122 544.909H224.119L224.117 544.909L211.745 544.909V613.872C220.883 613.415 230.035 611.788 237.152 606.811C244.903 601.39 250.901 591.497 250.901 572.588C250.901 565.395 249.163 560.226 246.731 556.469C244.288 552.695 241.015 550.147 237.654 548.416C234.277 546.678 230.861 545.792 228.263 545.346C226.971 545.124 225.902 545.014 225.17 544.961C224.805 544.934 224.525 544.921 224.345 544.915C224.255 544.912 224.19 544.91 224.152 544.909Z" fill="#D2CDBC"/>
<path fill-rule="evenodd" clip-rule="evenodd" d="M426.547 686.452H356.382L361.376 680.834C366.137 675.477 367.525 670.281 366.247 664.534C364.382 657.638 362.021 651.157 360.116 646.382C359.163 643.99 358.327 642.037 357.733 640.686L357.671 640.546H313.613L310.438 652.499L310.419 652.559C307.894 660.824 306.291 666.362 306.291 670.925C306.291 674.374 307.343 677.522 309.928 681.1L313.793 686.452H259.71L265.142 680.749C273.874 671.58 278.997 664.541 284.207 650.443L317.74 552.097L317.758 552.049C321.093 543.155 322.268 537.989 322.268 533.432C322.268 530.421 321.877 527.835 320.847 524.538L319.477 520.155H351.408L392.248 632.119C393.468 635.057 394.658 638.071 395.858 641.112L395.86 641.117C398.286 647.261 400.754 653.512 403.596 659.455C407.84 668.333 412.621 675.831 418.603 680.393L426.547 686.452ZM321.018 618.747L349.528 618.914L334.937 580.845L321.018 618.747Z" fill="#D2CDBC"/>
<path fill-rule="evenodd" clip-rule="evenodd" d="M166.837 686.452H96.672L101.666 680.834C106.427 675.477 107.815 670.281 106.537 664.534C104.672 657.638 102.311 651.157 100.406 646.382C99.4526 643.99 98.6173 642.037 98.0227 640.686L97.961 640.546H53.9026L50.7275 652.499L50.7093 652.559C48.184 660.824 46.5811 666.362 46.5811 670.925C46.5811 674.374 47.6333 677.522 50.2176 681.1L54.0828 686.452H0L5.43173 680.749C14.1643 671.58 19.2872 664.541 24.4974 650.443L58.0296 552.097L58.0475 552.049C61.3828 543.155 62.5582 537.989 62.5582 533.432C62.5582 530.421 62.1671 527.835 61.1366 524.538L59.7671 520.155H91.6984L132.538 632.119C133.758 635.057 134.947 638.07 136.148 641.11L136.15 641.117L136.151 641.119C138.577 647.263 141.044 653.513 143.886 659.455C148.13 668.333 152.911 675.831 158.893 680.393L166.837 686.452ZM61.3075 618.747L89.8178 618.914L75.2272 580.845L61.3075 618.747Z" fill="#D2CDBC"/>
<path d="M732.662 677.461H600.351C600.351 654.002 679.487 571.112 679.487 546.089C679.487 540.771 674.483 539.208 670.104 539.208C639.763 539.208 627.251 572.051 627.251 572.051L610.986 533.264C628.502 517.938 642.578 517.938 657.905 517.938C681.364 517.938 717.648 540.146 716.709 564.544C716.397 581.434 661.033 661.822 661.033 661.822C661.033 661.822 664.161 661.822 668.227 661.822C676.985 661.822 690.122 661.509 692.937 659.945C697.316 657.443 716.709 638.049 716.709 638.049L732.662 677.461Z" fill="url(#paint5_linear_2223_8)"/>
<path d="M805.518 516.687C856.815 516.687 875.27 555.473 875.27 599.889C875.27 659.006 843.678 680.276 805.518 680.276C767.044 680.276 736.078 658.694 736.078 598.325C736.078 537.644 767.044 516.687 805.518 516.687ZM776.741 603.017C779.243 611.775 781.433 620.22 784.248 627.727L816.778 557.037C809.584 547.966 798.636 542.023 778.93 542.023C770.172 542.023 766.732 546.715 766.732 555.785C766.732 565.169 772.049 585.188 776.741 603.017ZM830.228 657.443C838.986 657.443 841.801 647.433 841.801 640.552C841.801 629.917 837.109 611.462 832.418 596.761C829.915 588.941 828.039 580.809 825.223 573.302L792.38 642.429C799.575 651.812 810.835 657.443 830.228 657.443Z" fill="url(#paint6_linear_2223_8)"/>
<path d="M1009.71 677.461H877.403C877.403 654.002 956.539 571.112 956.539 546.089C956.539 540.771 951.535 539.208 947.156 539.208C916.815 539.208 904.303 572.051 904.303 572.051L888.038 533.264C905.555 517.938 919.63 517.938 934.957 517.938C958.416 517.938 994.7 540.146 993.762 564.544C993.449 581.434 938.085 661.822 938.085 661.822C938.085 661.822 941.213 661.822 945.279 661.822C954.037 661.822 967.174 661.509 969.989 659.945C974.369 657.443 993.762 638.049 993.762 638.049L1009.71 677.461Z" fill="url(#paint7_linear_2223_8)"/>
<path d="M1056.4 581.747C1058.9 584.875 1142.73 597.699 1143.04 646.182V646.495C1143.04 670.267 1103 715.622 1077.35 715.622C1049.2 715.622 1025.43 694.977 1016.98 676.836C1016.98 676.836 1055.14 684.343 1079.54 684.343C1093.93 684.343 1103 681.527 1103 665.262C1103 629.291 1034.5 606.77 1034.5 606.77V523.881H1134.59L1122.08 568.61L1106.75 553.909C1103.94 551.094 1100.81 549.53 1096.75 549.217H1064.84C1061.09 564.231 1056.4 581.747 1056.4 581.747Z" fill="url(#paint8_linear_2223_8)"/>
<path d="M542.886 663.023L548.595 656.899L540.235 657.351C536.914 657.53 533.696 657.8 530.529 658.066C525.364 658.499 520.334 658.921 515.214 658.921C495.939 658.921 483.26 652.51 474.361 642.751C465.324 632.839 459.925 619.188 455.915 604.263L455.908 604.238C451.92 589.835 449.955 576.191 449.955 565.534V565.49L449.954 565.446C449.735 557.005 450.866 551.265 452.841 547.751C454.653 544.528 457.23 543.031 460.981 543.031C476.524 543.031 487.412 545.46 495.349 549.572C503.216 553.647 508.452 559.513 512.472 566.919L514.881 571.357L543.986 535.451L541.987 533.305C529.021 519.378 510.681 513.552 491.135 513.552C471.603 513.552 453.559 519.144 440.424 532.909C427.309 546.653 419.576 568.037 419.576 598.613C419.576 629.079 427.31 650.302 440.437 663.909C453.578 677.529 471.622 682.999 491.135 682.999C511.118 682.999 529.688 677.18 542.886 663.023Z" fill="url(#paint9_linear_2223_8)"/>
<path fill-rule="evenodd" clip-rule="evenodd" d="M243.777 620.441C243.794 623.817 243.798 623.817 243.798 623.817L243.804 623.817L243.818 623.817L243.859 623.816C243.891 623.816 243.935 623.815 243.989 623.814L244.11 623.81L244.273 623.805L244.438 623.798C244.818 623.781 245.357 623.749 246.032 623.688C247.382 623.567 249.282 623.331 251.551 622.87C256.077 621.952 262.145 620.125 268.24 616.474C280.645 609.043 292.609 594.371 292.609 566.209L292.609 566.193C292.55 554.083 289.78 544.776 285.488 537.666C281.199 530.56 275.502 525.829 269.86 522.697C264.237 519.575 258.655 518.029 254.501 517.259C252.417 516.872 250.673 516.677 249.434 516.579C248.815 516.53 248.32 516.504 247.97 516.491C247.878 516.488 247.795 516.485 247.723 516.483C247.66 516.482 247.604 516.481 247.558 516.48L247.438 516.478L247.4 516.478L247.387 516.478L247.382 516.478C247.382 516.478 247.378 516.478 247.378 519.853L247.378 516.478H168.929L173.706 522.05C177.253 526.189 179.165 531.438 180.171 536.068C181.169 540.667 181.219 544.399 181.219 545.282V651.27C181.219 652.154 181.169 655.885 180.171 660.484C179.165 665.114 177.253 670.363 173.706 674.502L168.929 680.074H229.853L225.768 674.665C222.017 669.697 220.079 663.818 219.095 659.054C218.606 656.692 218.363 654.655 218.242 653.22C218.182 652.503 218.152 651.94 218.138 651.565L218.134 651.469L218.131 651.39C218.128 651.289 218.126 651.208 218.125 651.15L218.124 651.057L218.124 651.045V651.042L218.131 651.39C218.048 650.212 218.124 651.045 218.124 651.045V623.817L243.777 623.817L243.794 623.817L243.777 620.441ZM230.531 538.531L230.5 538.531H230.497L230.495 538.531L218.124 538.531V607.494C227.261 607.036 236.413 605.41 243.53 600.432C251.282 595.012 257.279 585.118 257.279 566.209C257.279 559.016 255.541 553.847 253.109 550.09C250.667 546.317 247.393 543.769 244.032 542.038C240.656 540.299 237.24 539.413 234.641 538.967C233.349 538.746 232.281 538.636 231.549 538.582C231.183 538.555 230.903 538.542 230.723 538.536C230.633 538.533 230.569 538.532 230.531 538.531Z" fill="url(#paint10_linear_2223_8)"/>
<path fill-rule="evenodd" clip-rule="evenodd" d="M432.926 680.074H362.76L367.754 674.456C372.516 669.099 373.903 663.903 372.625 658.156C370.76 651.26 368.4 644.779 366.495 640.003C365.541 637.612 364.706 635.659 364.111 634.308L364.049 634.168H319.991L316.816 646.121L316.798 646.181C314.272 654.445 312.67 659.984 312.67 664.547C312.67 667.996 313.722 671.144 316.306 674.722L320.171 680.074H266.088L271.52 674.37C280.253 665.201 285.376 658.163 290.586 644.065L324.118 545.719L324.136 545.671C327.471 536.777 328.647 531.611 328.647 527.054C328.647 524.043 328.256 521.457 327.225 518.159L325.856 513.777H357.787L398.626 625.741C399.846 628.679 401.036 631.693 402.237 634.733L402.239 634.739C404.665 640.883 407.133 647.134 409.974 653.077C414.219 661.954 419 669.452 424.981 674.014L432.926 680.074ZM327.396 612.368L355.906 612.536L341.316 574.466L327.396 612.368Z" fill="url(#paint11_linear_2223_8)"/>
<path fill-rule="evenodd" clip-rule="evenodd" d="M173.215 680.074H103.05L108.044 674.456C112.806 669.099 114.193 663.903 112.915 658.156C111.05 651.26 108.69 644.779 106.785 640.003C105.831 637.612 104.996 635.659 104.401 634.308L104.339 634.168H60.281L57.1059 646.121L57.0877 646.181C54.5624 654.445 52.9595 659.984 52.9595 664.547C52.9595 667.996 54.0118 671.144 56.596 674.722L60.4612 680.074H6.37842L11.8102 674.37C20.5427 665.201 25.6657 658.163 30.8758 644.065L64.408 545.719L64.4259 545.671C67.7612 536.777 68.9366 531.611 68.9366 527.054C68.9366 524.043 68.5455 521.457 67.515 518.159L66.1455 513.777H98.0768L138.916 625.741C140.136 628.678 141.326 631.692 142.526 634.732L142.529 634.739L142.529 634.741C144.955 640.884 147.423 647.134 150.264 653.077C154.509 661.954 159.29 669.452 165.271 674.014L173.215 680.074ZM67.6859 612.368L96.1962 612.536L81.6056 574.466L67.6859 612.368Z" fill="url(#paint12_linear_2223_8)"/>
<path d="M310 166.788V132.538H317.095V146.336H332.849V132.538H339.944V166.788H332.849V152.745H317.095V166.788H310Z" fill="#CEBB96"/>
<path d="M352.678 166.788L366.769 132.538H374.94L388.885 166.788H381.203L377.729 157.785H363.589L360.066 166.788H352.678ZM365.791 152.109H375.576L370.683 139.486L365.791 152.109Z" fill="#CEBB96"/>
<path d="M401.578 166.788V132.538H408.672V160.525H427.411V166.788H401.578Z" fill="#CEBB96"/>
<path d="M442.086 166.788V132.538H449.181V166.788H442.086Z" fill="#CEBB96"/>
<path d="M482.034 167.326C479.49 167.326 477.125 166.886 474.94 166.005C472.754 165.092 470.83 163.836 469.166 162.237C467.503 160.607 466.198 158.731 465.252 156.611C464.339 154.458 463.882 152.142 463.882 149.663C463.882 147.184 464.339 144.884 465.252 142.764C466.198 140.611 467.486 138.736 469.117 137.137C470.748 135.507 472.656 134.251 474.842 133.37C477.06 132.457 479.425 132 481.936 132C484.774 132 487.449 132.571 489.961 133.712C492.472 134.822 494.543 136.387 496.174 138.41L491.233 142.96C490.058 141.492 488.672 140.383 487.074 139.633C485.475 138.883 483.763 138.507 481.936 138.507C480.403 138.507 478.984 138.801 477.68 139.388C476.375 139.943 475.233 140.725 474.255 141.737C473.276 142.715 472.51 143.89 471.955 145.259C471.433 146.597 471.172 148.065 471.172 149.663C471.172 151.261 471.449 152.745 472.004 154.115C472.559 155.485 473.325 156.676 474.304 157.687C475.315 158.666 476.473 159.449 477.777 160.036C479.115 160.59 480.566 160.868 482.132 160.868C483.763 160.868 485.231 160.574 486.536 159.987C487.84 159.367 488.933 158.519 489.814 157.443C490.727 156.334 491.331 155.094 491.624 153.724H481.496V147.559H499.208V149.712C499.208 152.256 498.768 154.605 497.887 156.758C497.039 158.878 495.848 160.737 494.315 162.335C492.782 163.901 490.972 165.124 488.884 166.005C486.797 166.886 484.513 167.326 482.034 167.326Z" fill="#CEBB96"/>
<path d="M513.835 166.788V132.538H520.929V166.788H513.835Z" fill="#CEBB96"/>
<path d="M550.708 176.965L570.622 132.538H577.081L557.167 176.965H550.708Z" fill="#CEBB96"/>
<path d="M611.031 166.788V132.538H628.205C630.456 132.538 632.429 132.995 634.125 133.908C635.854 134.822 637.208 136.094 638.186 137.725C639.165 139.323 639.654 141.182 639.654 143.302C639.654 145.325 639.165 147.135 638.186 148.733C637.208 150.332 635.854 151.588 634.125 152.501C632.397 153.414 630.423 153.871 628.205 153.871H618.126V166.788H611.031ZM618.126 147.999H627.422C628.955 147.999 630.178 147.575 631.092 146.727C632.038 145.879 632.511 144.754 632.511 143.351C632.511 141.916 632.038 140.774 631.092 139.926C630.178 139.078 628.955 138.654 627.422 138.654H618.126V147.999Z" fill="#CEBB96"/>
<path d="M654.12 166.788V132.538H661.215V166.788H654.12Z" fill="#CEBB96"/>
<path d="M677.237 166.788V132.538H684.332V160.525H703.071V166.788H677.237Z" fill="#CEBB96"/>
<path d="M717.746 166.788V132.538H724.841V160.525H743.58V166.788H717.746Z" fill="#CEBB96"/>
<path d="M755.646 166.788L769.737 132.538H777.908L791.852 166.788H784.171L780.697 157.785H766.557L763.034 166.788H755.646ZM768.758 152.109H778.544L773.651 139.486L768.758 152.109Z" fill="#CEBB96"/>
<path d="M804.545 166.788V132.538H821.279C823.595 132.538 825.633 132.995 827.395 133.908C829.189 134.789 830.575 136.028 831.554 137.627C832.565 139.225 833.07 141.068 833.07 143.156C833.07 145.341 832.467 147.266 831.26 148.929C830.053 150.593 828.439 151.832 826.416 152.648L834 166.788H826.074L819.371 153.675H811.64V166.788H804.545ZM811.64 147.853H820.643C822.241 147.853 823.513 147.429 824.459 146.581C825.438 145.732 825.927 144.623 825.927 143.253C825.927 141.883 825.438 140.774 824.459 139.926C823.513 139.078 822.241 138.654 820.643 138.654H811.64V147.853Z" fill="#CEBB96"/>
<defs>
<linearGradient id="paint0_linear_2223_8" x1="590.655" y1="227.01" x2="590.655" y2="467.309" gradientUnits="userSpaceOnUse">
<stop stop-color="#FFBB01"/>
<stop offset="1" stop-color="#FFA401"/>
</linearGradient>
<linearGradient id="paint1_linear_2223_8" x1="590.655" y1="227.01" x2="590.655" y2="467.309" gradientUnits="userSpaceOnUse">
<stop stop-color="#FFBB01"/>
<stop offset="1" stop-color="#FFA401"/>
</linearGradient>
<linearGradient id="paint2_linear_2223_8" x1="590.655" y1="227.01" x2="590.655" y2="467.309" gradientUnits="userSpaceOnUse">
<stop stop-color="#FFBB01"/>
<stop offset="1" stop-color="#FFA401"/>
</linearGradient>
<linearGradient id="paint3_linear_2223_8" x1="590.655" y1="227.01" x2="590.655" y2="467.309" gradientUnits="userSpaceOnUse">
<stop stop-color="#FFBB01"/>
<stop offset="1" stop-color="#FFA401"/>
</linearGradient>
<linearGradient id="paint4_linear_2223_8" x1="590.655" y1="227.01" x2="590.655" y2="467.309" gradientUnits="userSpaceOnUse">
<stop stop-color="#FFBB01"/>
<stop offset="1" stop-color="#FFA401"/>
</linearGradient>
<linearGradient id="paint5_linear_2223_8" x1="184.436" y1="514.534" x2="184.436" y2="680.708" gradientUnits="userSpaceOnUse">
<stop stop-color="#2D7353"/>
<stop offset="1" stop-color="#235940"/>
</linearGradient>
<linearGradient id="paint6_linear_2223_8" x1="184.436" y1="514.534" x2="184.436" y2="680.708" gradientUnits="userSpaceOnUse">
<stop stop-color="#2D7353"/>
<stop offset="1" stop-color="#235940"/>
</linearGradient>
<linearGradient id="paint7_linear_2223_8" x1="184.436" y1="514.534" x2="184.436" y2="680.708" gradientUnits="userSpaceOnUse">
<stop stop-color="#2D7353"/>
<stop offset="1" stop-color="#235940"/>
</linearGradient>
<linearGradient id="paint8_linear_2223_8" x1="184.436" y1="514.534" x2="184.436" y2="680.708" gradientUnits="userSpaceOnUse">
<stop stop-color="#2D7353"/>
<stop offset="1" stop-color="#235940"/>
</linearGradient>
<linearGradient id="paint9_linear_2223_8" x1="184.436" y1="514.534" x2="184.436" y2="680.708" gradientUnits="userSpaceOnUse">
<stop stop-color="#2D7353"/>
<stop offset="1" stop-color="#235940"/>
</linearGradient>
<linearGradient id="paint10_linear_2223_8" x1="184.436" y1="514.534" x2="184.436" y2="680.708" gradientUnits="userSpaceOnUse">
<stop stop-color="#2D7353"/>
<stop offset="1" stop-color="#235940"/>
</linearGradient>
<linearGradient id="paint11_linear_2223_8" x1="184.436" y1="514.534" x2="184.436" y2="680.708" gradientUnits="userSpaceOnUse">
<stop stop-color="#2D7353"/>
<stop offset="1" stop-color="#235940"/>
</linearGradient>
<linearGradient id="paint12_linear_2223_8" x1="184.436" y1="514.534" x2="184.436" y2="680.708" gradientUnits="userSpaceOnUse">
<stop stop-color="#2D7353"/>
<stop offset="1" stop-color="#235940"/>
</linearGradient>
</defs>
</svg>
