<svg width="1001" height="632" viewBox="0 0 1001 632" fill="none" xmlns="http://www.w3.org/2000/svg">
<path d="M426.36 55.1883C423.1 55.1883 420.152 54.6746 417.516 53.6473C414.926 52.5753 412.268 51.0343 409.544 49.0244L412.089 45.2724C413.876 46.5231 415.506 47.5504 416.98 48.3544C418.454 49.1583 419.928 49.739 421.402 50.0963C422.921 50.4537 424.618 50.6323 426.494 50.6323C429.264 50.6323 431.966 50.2973 434.601 49.6273C437.281 48.9574 439.604 48.3097 441.569 47.6844C443.579 47.059 445.812 46.4337 448.269 45.8084C450.726 45.1831 453.294 44.8704 455.974 44.8704C459.279 44.8704 462.249 45.4064 464.885 46.4784C467.52 47.5057 470.2 49.0244 472.924 51.0343L470.111 54.6523C468.592 53.4909 467.096 52.5306 465.622 51.7713C464.148 51.012 462.584 50.4313 460.932 50.0293C459.279 49.6273 457.336 49.4263 455.103 49.4263C453.048 49.4263 450.949 49.739 448.805 50.3643C446.661 50.945 444.718 51.5033 442.976 52.0393C440.787 52.754 438.197 53.4686 435.204 54.1833C432.256 54.8533 429.308 55.1883 426.36 55.1883ZM505.608 71.67L501.455 69.459C502.527 67.5384 503.665 66.0197 504.871 64.9031C506.077 63.7418 507.239 62.8038 508.355 62.0891C508.802 61.8211 509.025 61.5978 509.025 61.4192C509.025 61.2405 508.623 60.9948 507.819 60.6822C507.06 60.3695 506.301 60.0792 505.541 59.8112C504.827 59.4985 504.224 59.0742 503.732 58.5382C503.286 58.0022 503.062 57.2429 503.062 56.2602C503.062 55.3669 503.263 54.6299 503.665 54.0493C504.112 53.4686 504.581 53.022 505.072 52.7093C505.608 52.352 506.01 52.1063 506.278 51.9723C506.77 51.749 507.216 51.548 507.618 51.3693C508.02 51.146 508.221 50.9673 508.221 50.8333C508.221 50.6547 507.819 50.409 507.015 50.0963C505.72 49.605 504.67 48.935 503.866 48.0864C503.062 47.2377 502.661 46.1434 502.661 44.8034C502.661 42.7935 503.129 40.9621 504.067 39.3095C502.281 40.1582 500.338 40.9398 498.239 41.6545C496.184 42.3245 494.018 42.6595 491.74 42.6595C488.836 42.6595 486.357 42.1458 484.303 41.1185C482.293 40.0912 480.261 38.7065 478.206 36.9645L481.221 33.3466C482.739 34.7759 484.325 35.9372 485.978 36.8305C487.675 37.6792 489.64 38.1035 491.874 38.1035C493.75 38.1035 495.938 37.6345 498.44 36.6965C500.986 35.7139 503.397 34.6196 505.675 33.4136C509.159 31.5823 512.241 30.287 514.921 29.5277C517.646 28.7683 520.125 28.3887 522.358 28.3887C524.859 28.3887 527.093 28.679 529.058 29.2597C531.023 29.7957 533.033 30.622 535.088 31.7386L533.011 35.8256C531.224 34.8876 529.527 34.1729 527.919 33.6816C526.356 33.1903 524.591 32.9446 522.626 32.9446C519.455 32.9446 516.73 33.4583 514.452 34.4856C512.219 35.5129 510.499 36.8529 509.293 38.5055C508.132 40.1582 507.551 41.9448 507.551 43.8654C507.551 44.5801 507.797 45.1384 508.288 45.5404C508.824 45.8977 509.561 46.2551 510.499 46.6124C511.795 47.1037 512.755 47.662 513.38 48.2874C514.05 48.868 514.385 49.605 514.385 50.4983C514.385 51.3916 513.872 52.1956 512.844 52.9103C511.817 53.5803 510.834 54.2056 509.896 54.7863C509.316 55.1436 508.936 55.4339 508.757 55.6572C508.579 55.8359 508.489 55.9699 508.489 56.0592C508.489 56.1932 508.69 56.3496 509.092 56.5282C509.494 56.6622 509.919 56.8409 510.365 57.0642C511.527 57.5555 512.599 58.0692 513.581 58.6052C514.564 59.0965 515.055 59.8782 515.055 60.9502C515.055 61.9328 514.743 62.8038 514.117 63.5631C513.492 64.2778 512.599 65.0148 511.437 65.7741C510.455 66.3994 509.472 67.1811 508.489 68.119C507.507 69.0124 506.546 70.196 505.608 71.67ZM509.238 23.8998C508.256 23.8998 507.429 23.5871 506.759 22.9618C506.089 22.3364 505.754 21.3985 505.754 20.1478C505.754 18.8525 506.089 17.9145 506.759 17.3339C507.429 16.7085 508.256 16.3959 509.238 16.3959C510.132 16.3959 510.936 16.7085 511.65 17.3339C512.32 17.9145 512.655 18.8525 512.655 20.1478C512.655 21.3985 512.32 22.3364 511.65 22.9618C510.936 23.5871 510.132 23.8998 509.238 23.8998ZM553.786 71C550.928 71 548.471 70.799 546.417 70.397C544.407 69.995 542.508 69.459 540.722 68.789L542.397 64.4341C544.049 65.1488 545.925 65.6624 548.025 65.9751C550.169 66.2877 552.067 66.4441 553.719 66.4441C556.355 66.4441 558.499 65.9974 560.151 65.1041C561.804 64.2108 563.032 63.0718 563.836 61.6871C564.64 60.3025 565.042 58.8955 565.042 57.4662C565.042 55.1436 564.238 53.3569 562.63 52.1063C561.067 50.811 558.655 50.1633 555.394 50.1633H550.771V45.6074H553.853C556.221 45.6074 558.119 45.2501 559.548 44.5354C561.022 43.7761 562.072 42.8605 562.697 41.7885C563.367 40.6718 563.702 39.5775 563.702 38.5055C563.702 37.0315 563.122 35.7586 561.96 34.6866C560.799 33.6146 558.856 33.0786 556.131 33.0786C554.345 33.0786 552.603 33.3019 550.905 33.7486C549.208 34.1506 547.779 34.6419 546.618 35.2226L544.742 31.0016C546.752 30.0637 548.628 29.416 550.37 29.0587C552.111 28.7013 554.121 28.5227 556.399 28.5227C561.134 28.5227 564.573 29.7733 566.717 32.2746C567.879 31.56 569.018 31.091 570.134 30.8676C571.295 30.5996 572.39 30.4656 573.417 30.4656C577.124 30.4656 579.737 31.8726 581.256 34.6866C582.775 37.5005 583.534 41.7661 583.534 47.4834V57.1312C583.534 59.2752 583.69 61.0395 584.003 62.4241C584.36 63.8088 585.12 64.8361 586.281 65.5061C587.487 66.1314 589.341 66.4441 591.842 66.4441V71H591.172C587.509 71 584.762 70.4193 582.931 69.258C581.1 68.0967 579.871 66.4664 579.246 64.3671C578.665 62.2678 578.375 59.8558 578.375 57.1312V47.4834C578.375 44.2674 578.174 41.7661 577.772 39.9795C577.37 38.1482 576.745 36.8752 575.896 36.1606C575.092 35.4012 574.065 35.0216 572.814 35.0216C572.189 35.0216 571.496 35.1332 570.737 35.3566C569.978 35.5352 569.286 35.8032 568.66 36.1606C568.794 36.8305 568.861 37.5229 568.861 38.2375C568.861 40.2475 568.37 42.0118 567.387 43.5304C566.449 45.0491 564.975 46.2551 562.965 47.1484C565.02 47.729 566.717 48.935 568.057 50.7663C569.442 52.553 570.134 54.7639 570.134 57.3992C570.134 60.2578 569.42 62.7145 567.99 64.7691C566.606 66.7791 564.685 68.32 562.228 69.392C559.772 70.464 556.958 71 553.786 71ZM564.526 23.8998C563.543 23.8998 562.717 23.5871 562.047 22.9618C561.377 22.3364 561.042 21.3985 561.042 20.1478C561.042 18.8525 561.377 17.9145 562.047 17.3339C562.717 16.7085 563.543 16.3959 564.526 16.3959C565.419 16.3959 566.223 16.7085 566.938 17.3339C567.608 17.9145 567.943 18.8525 567.943 20.1478C567.943 21.3985 567.608 22.3364 566.938 22.9618C566.223 23.5871 565.419 23.8998 564.526 23.8998Z" fill="#423E33"/>
<path d="M228.553 145.296V119.056H233.989V129.627H246.059V119.056H251.495V145.296H246.059V134.538H233.989V145.296H228.553Z" fill="#CEBB96"/>
<path d="M261.251 145.296L272.046 119.056H278.307L288.99 145.296H283.105L280.443 138.399H269.61L266.911 145.296H261.251ZM271.297 134.051H278.794L275.045 124.379L271.297 134.051Z" fill="#CEBB96"/>
<path d="M298.715 145.296V119.056H304.15V140.498H318.507V145.296H298.715Z" fill="#CEBB96"/>
<path d="M329.75 145.296V119.056H335.186V145.296H329.75Z" fill="#CEBB96"/>
<path d="M360.356 145.709C358.407 145.709 356.595 145.371 354.921 144.697C353.246 143.997 351.772 143.035 350.497 141.81C349.223 140.561 348.223 139.124 347.498 137.499C346.799 135.85 346.449 134.076 346.449 132.176C346.449 130.277 346.799 128.515 347.498 126.891C348.223 125.242 349.21 123.805 350.46 122.58C351.709 121.331 353.171 120.368 354.846 119.694C356.545 118.994 358.357 118.644 360.281 118.644C362.455 118.644 364.505 119.081 366.429 119.956C368.353 120.806 369.94 122.005 371.19 123.555L367.403 127.041C366.504 125.916 365.442 125.067 364.217 124.492C362.993 123.917 361.681 123.63 360.281 123.63C359.107 123.63 358.02 123.855 357.02 124.304C356.02 124.729 355.146 125.329 354.396 126.104C353.646 126.853 353.059 127.753 352.634 128.803C352.234 129.827 352.034 130.952 352.034 132.176C352.034 133.401 352.247 134.538 352.672 135.588C353.096 136.637 353.684 137.549 354.433 138.324C355.208 139.074 356.095 139.674 357.095 140.123C358.119 140.548 359.232 140.761 360.431 140.761C361.681 140.761 362.805 140.536 363.805 140.086C364.804 139.611 365.642 138.961 366.316 138.137C367.016 137.287 367.478 136.337 367.703 135.288H359.944V130.565H373.514V132.214C373.514 134.163 373.176 135.962 372.502 137.612C371.852 139.236 370.94 140.661 369.765 141.885C368.59 143.085 367.204 144.022 365.604 144.697C364.005 145.371 362.255 145.709 360.356 145.709Z" fill="#CEBB96"/>
<path d="M384.72 145.296V119.056H390.155V145.296H384.72Z" fill="#CEBB96"/>
<path d="M412.97 153.093L428.227 119.056H433.175L417.919 153.093H412.97Z" fill="#CEBB96"/>
<path d="M459.186 145.296V119.056H479.466V123.78H464.622V129.965H474.481V134.538H464.622V145.296H459.186Z" fill="#CEBB96"/>
<path d="M501.798 145.709C499.849 145.709 498.037 145.371 496.363 144.697C494.689 143.997 493.214 143.035 491.94 141.81C490.69 140.561 489.703 139.124 488.978 137.499C488.279 135.85 487.929 134.076 487.929 132.176C487.929 130.277 488.279 128.515 488.978 126.891C489.703 125.242 490.69 123.805 491.94 122.58C493.214 121.331 494.689 120.368 496.363 119.694C498.037 118.994 499.849 118.644 501.798 118.644C503.748 118.644 505.56 118.994 507.234 119.694C508.933 120.368 510.408 121.331 511.657 122.58C512.932 123.805 513.919 125.242 514.619 126.891C515.318 128.515 515.668 130.277 515.668 132.176C515.668 134.076 515.318 135.85 514.619 137.499C513.919 139.124 512.932 140.561 511.657 141.81C510.408 143.035 508.933 143.997 507.234 144.697C505.56 145.371 503.748 145.709 501.798 145.709ZM501.798 140.723C502.998 140.723 504.098 140.511 505.097 140.086C506.097 139.636 506.971 139.036 507.721 138.287C508.471 137.512 509.058 136.6 509.483 135.55C509.908 134.501 510.12 133.376 510.12 132.176C510.12 130.952 509.908 129.827 509.483 128.803C509.058 127.753 508.471 126.853 507.721 126.104C506.971 125.329 506.097 124.729 505.097 124.304C504.098 123.855 502.998 123.63 501.798 123.63C500.624 123.63 499.537 123.855 498.537 124.304C497.538 124.729 496.663 125.329 495.913 126.104C495.163 126.853 494.576 127.753 494.151 128.803C493.726 129.827 493.514 130.939 493.514 132.139C493.514 133.363 493.726 134.501 494.151 135.55C494.576 136.6 495.163 137.512 495.913 138.287C496.663 139.036 497.538 139.636 498.537 140.086C499.537 140.511 500.624 140.723 501.798 140.723Z" fill="#CEBB96"/>
<path d="M538.14 145.671C535.766 145.671 533.704 145.196 531.955 144.247C530.231 143.297 528.894 141.948 527.944 140.198C526.994 138.424 526.52 136.35 526.52 133.976V119.056H531.955V133.976C531.955 135.325 532.205 136.512 532.705 137.537C533.229 138.537 533.954 139.311 534.879 139.861C535.828 140.386 536.928 140.648 538.178 140.648C539.427 140.648 540.514 140.386 541.439 139.861C542.363 139.311 543.076 138.537 543.576 137.537C544.1 136.512 544.363 135.325 544.363 133.976V119.056H549.761V133.976C549.761 136.325 549.286 138.387 548.336 140.161C547.387 141.91 546.037 143.272 544.288 144.247C542.563 145.196 540.514 145.671 538.14 145.671Z" fill="#CEBB96"/>
<path d="M561.592 145.296V119.056H566.765L579.81 136V119.056H584.908V145.296H580.11L566.727 127.753V145.296H561.592Z" fill="#CEBB96"/>
<path d="M602.602 140.461H607.175C608.35 140.461 609.437 140.261 610.437 139.861C611.461 139.436 612.348 138.849 613.098 138.099C613.873 137.349 614.46 136.475 614.86 135.475C615.285 134.476 615.497 133.388 615.497 132.214C615.497 131.039 615.285 129.952 614.86 128.953C614.435 127.928 613.848 127.041 613.098 126.291C612.348 125.541 611.461 124.954 610.437 124.529C609.437 124.104 608.35 123.892 607.175 123.892H602.602V140.461ZM597.167 145.296V119.056H607.25C609.224 119.056 611.049 119.394 612.723 120.069C614.398 120.718 615.859 121.643 617.109 122.842C618.359 124.042 619.333 125.441 620.033 127.041C620.758 128.64 621.12 130.365 621.12 132.214C621.12 134.088 620.77 135.813 620.07 137.387C619.371 138.961 618.384 140.348 617.109 141.548C615.859 142.722 614.398 143.647 612.723 144.322C611.049 144.972 609.224 145.296 607.25 145.296H597.167Z" fill="#CEBB96"/>
<path d="M628.363 145.296L639.159 119.056H645.419L656.102 145.296H650.217L647.556 138.399H636.722L634.023 145.296H628.363ZM638.409 134.051H645.906L642.158 124.379L638.409 134.051Z" fill="#CEBB96"/>
<path d="M668.191 145.296V123.855H659.345V119.056H682.436V123.855H673.627V145.296H668.191Z" fill="#CEBB96"/>
<path d="M692.982 145.296V119.056H698.418V145.296H692.982Z" fill="#CEBB96"/>
<path d="M723.551 145.709C721.601 145.709 719.79 145.371 718.115 144.697C716.441 143.997 714.966 143.035 713.692 141.81C712.442 140.561 711.455 139.124 710.73 137.499C710.031 135.85 709.681 134.076 709.681 132.176C709.681 130.277 710.031 128.515 710.73 126.891C711.455 125.242 712.442 123.805 713.692 122.58C714.966 121.331 716.441 120.368 718.115 119.694C719.79 118.994 721.601 118.644 723.551 118.644C725.5 118.644 727.312 118.994 728.986 119.694C730.685 120.368 732.16 121.331 733.409 122.58C734.684 123.805 735.671 125.242 736.371 126.891C737.071 128.515 737.42 130.277 737.42 132.176C737.42 134.076 737.071 135.85 736.371 137.499C735.671 139.124 734.684 140.561 733.409 141.81C732.16 143.035 730.685 143.997 728.986 144.697C727.312 145.371 725.5 145.709 723.551 145.709ZM723.551 140.723C724.75 140.723 725.85 140.511 726.849 140.086C727.849 139.636 728.724 139.036 729.473 138.287C730.223 137.512 730.81 136.6 731.235 135.55C731.66 134.501 731.873 133.376 731.873 132.176C731.873 130.952 731.66 129.827 731.235 128.803C730.81 127.753 730.223 126.853 729.473 126.104C728.724 125.329 727.849 124.729 726.849 124.304C725.85 123.855 724.75 123.63 723.551 123.63C722.376 123.63 721.289 123.855 720.289 124.304C719.29 124.729 718.415 125.329 717.665 126.104C716.916 126.853 716.328 127.753 715.904 128.803C715.479 129.827 715.266 130.939 715.266 132.139C715.266 133.363 715.479 134.501 715.904 135.55C716.328 136.6 716.916 137.512 717.665 138.287C718.415 139.036 719.29 139.636 720.289 140.086C721.289 140.511 722.376 140.723 723.551 140.723Z" fill="#CEBB96"/>
<path d="M748.684 145.296V119.056H753.857L766.902 136V119.056H772V145.296H767.202L753.82 127.753V145.296H748.684Z" fill="#CEBB96"/>
<path fill-rule="evenodd" clip-rule="evenodd" d="M176.955 336.963C176.976 341.153 176.981 341.153 176.981 341.153L176.988 341.153L177.005 341.153L177.056 341.152C177.096 341.151 177.15 341.15 177.218 341.149C177.352 341.146 177.539 341.14 177.775 341.129C178.247 341.108 178.916 341.068 179.754 340.993C181.428 340.843 183.787 340.55 186.603 339.978C192.221 338.838 199.752 336.57 207.317 332.039C222.714 322.816 237.562 304.606 237.562 269.653L237.562 269.632C237.489 254.601 234.052 243.051 228.725 234.225C223.402 225.406 216.33 219.535 209.327 215.646C202.349 211.772 195.421 209.853 190.265 208.897C187.679 208.417 185.514 208.176 183.976 208.053C183.207 207.992 182.593 207.961 182.159 207.945C181.942 207.937 181.771 207.932 181.647 207.93L181.498 207.928L181.451 207.928L181.435 207.928L181.429 207.928C181.429 207.928 181.424 207.928 181.424 212.117L181.424 207.928H84.0566L89.9846 214.844C94.3878 219.981 96.7609 226.495 98.0089 232.243C99.2484 237.951 99.31 242.582 99.31 243.678V375.227C99.31 376.323 99.2484 380.954 98.0089 386.662C96.7609 392.41 94.3878 398.924 89.9846 404.061L84.0566 410.977H159.673L154.603 404.263C149.947 398.098 147.542 390.801 146.32 384.888C145.714 381.956 145.412 379.428 145.262 377.646C145.187 376.757 145.15 376.058 145.132 375.593C145.123 375.361 145.119 375.187 145.117 375.078L145.115 374.962L145.115 374.948V341.153L176.955 341.153L176.976 341.153L176.955 336.963ZM103.5 243.678C103.5 241.164 103.22 223.848 93.1655 212.117C94.3091 213.452 95.3262 214.858 96.2309 216.307C103.28 227.595 103.5 241.45 103.5 243.678ZM160.469 235.299L160.472 235.299L160.514 235.3C160.561 235.3 160.641 235.302 160.753 235.306C160.976 235.314 161.323 235.33 161.777 235.363C162.686 235.43 164.012 235.566 165.615 235.841C168.841 236.395 173.08 237.494 177.271 239.652C181.443 241.8 185.506 244.963 188.537 249.647C191.556 254.31 193.713 260.725 193.713 269.653C193.713 293.122 186.269 305.401 176.648 312.129C167.815 318.307 156.456 320.325 145.115 320.893V235.299L160.469 235.299Z" fill="#D2CDBC"/>
<path d="M938.832 207.928H880.952L884.722 214.26C888.082 219.905 890.331 224.77 891.773 230.314C893.223 235.888 893.908 242.346 893.908 251.219V333.081L807.003 207.928H759.329L762.91 214.196C766.158 219.88 768.42 224.769 769.901 230.336C771.385 235.918 772.134 242.376 772.134 251.219V367.686C772.134 376.53 771.385 382.987 769.901 388.569C768.42 394.136 766.158 399.025 762.91 404.709L759.329 410.977H816.779L813.197 404.709C809.933 398.997 807.602 394.099 806.056 388.526C804.508 382.949 803.694 376.502 803.694 367.686V287.103L879.539 392.372C889.295 407.843 903.824 415.211 921.977 414.606L926.027 414.471V249.543C926.027 234.117 928.887 225.332 935.25 214.196L938.832 207.928Z" fill="#D2CDBC"/>
<path fill-rule="evenodd" clip-rule="evenodd" d="M720.293 228.746C736.623 245.93 746.303 272.455 746.303 309.871C746.303 347.692 736.63 374.034 720.265 390.92C703.886 407.82 681.426 414.607 657.207 414.607C632.987 414.607 610.593 407.819 594.283 390.913C577.99 374.025 568.391 347.684 568.391 309.871C568.391 271.921 577.988 245.381 594.267 228.321C610.569 211.238 632.965 204.296 657.207 204.296C681.492 204.296 703.942 211.541 720.293 228.746ZM687.092 384.722C694.336 384.722 698.586 382.045 701.263 377.858C704.15 373.341 705.526 366.551 705.526 357.91C705.526 355.979 705.539 353.942 705.553 351.825V351.792C705.647 337.572 705.764 319.761 702.051 306.534L702.041 306.499L702.031 306.463C696.581 285.64 690.865 269.535 679.398 258.455C668.098 247.537 650.507 240.884 619.781 240.884C615.121 240.884 611.919 242.747 609.672 246.718C607.225 251.044 605.823 258.095 606.094 268.424L606.096 268.48V268.535C606.096 282.037 608.533 298.695 613.489 316.868L613.493 316.883C618.47 335.408 625.171 352.35 636.388 364.653C647.432 376.766 663.17 384.722 687.092 384.722Z" fill="#D2CDBC"/>
<path d="M565.642 389.814L572.728 382.213L562.352 382.773C558.231 382.996 554.237 383.331 550.306 383.661C543.895 384.199 537.651 384.722 531.296 384.722C507.374 384.722 491.637 376.766 480.593 364.653C469.375 352.35 462.674 335.408 457.698 316.883L457.689 316.852C452.739 298.976 450.3 282.042 450.3 268.814V268.76L450.299 268.705C450.027 258.228 451.43 251.105 453.882 246.742C456.131 242.742 459.33 240.884 463.986 240.884C483.276 240.884 496.79 243.9 506.642 249.003C516.405 254.061 522.904 261.341 527.894 270.533L530.884 276.041L567.008 231.477L564.527 228.813C548.434 211.527 525.671 204.296 501.411 204.296C477.169 204.296 454.773 211.238 438.471 228.321C422.192 245.381 412.595 271.921 412.595 309.871C412.595 347.684 422.194 374.025 438.487 390.913C454.797 407.819 477.192 414.607 501.411 414.607C526.213 414.607 549.262 407.385 565.642 389.814Z" fill="#D2CDBC"/>
<path d="M358.698 208.207H429.591L421.573 215.497C409.559 226.418 400.616 236.995 392.189 251.13L392.171 251.161C387.885 258.212 378.148 275.319 369.441 290.74C365.097 298.434 361.023 305.683 358.035 311.009C356.541 313.673 355.318 315.855 354.469 317.371L353.678 318.784V365.731C353.678 375.79 354.304 382.643 355.779 388.354C357.236 393.991 359.58 398.737 363.334 404.502L367.55 410.978H290.96L297.89 403.864C302.648 398.982 304.985 394.389 306.217 388.508C307.506 382.351 307.594 374.793 307.594 363.776V321.903L301.882 312.166C298.072 305.673 292.931 296.909 287.607 287.832C276.976 269.708 265.609 250.321 262.652 245.253C256.98 235.805 248.299 224.682 238.287 215.482L230.371 208.207H314.842L310.179 214.813C306.889 219.474 305.505 222.342 305.235 225.095C304.969 227.805 305.721 231.111 308.522 236.724C310.348 240.13 312.732 244.699 315.54 250.081C321.449 261.407 329.236 276.334 337.661 291.59L338.336 290.313C340.942 285.385 344.478 278.705 348.198 271.703C355.591 257.784 363.762 242.489 366.759 237.201C369.264 232.423 369.984 228.695 369.594 225.468C369.2 222.211 367.606 218.896 364.425 215.079L358.698 208.207Z" fill="#D2CDBC"/>
<path fill-rule="evenodd" clip-rule="evenodd" d="M182.538 331.38C182.559 335.57 182.564 335.57 182.564 335.57L182.571 335.569L182.589 335.569L182.639 335.569C182.68 335.568 182.734 335.567 182.801 335.566C182.935 335.562 183.122 335.556 183.358 335.546C183.83 335.525 184.499 335.485 185.337 335.41C187.012 335.259 189.37 334.967 192.187 334.395C197.804 333.255 205.335 330.987 212.9 326.456C228.297 317.232 243.146 299.023 243.146 264.069L243.146 264.049C243.073 249.018 239.635 237.468 234.308 228.642C228.985 219.822 221.913 213.951 214.91 210.063C207.932 206.188 201.004 204.27 195.848 203.314C193.262 202.834 191.097 202.592 189.56 202.47C188.79 202.409 188.176 202.378 187.743 202.362C187.526 202.353 187.354 202.349 187.23 202.347L187.081 202.345L187.035 202.345L187.018 202.345L187.012 202.345C187.012 202.345 187.007 202.345 187.007 206.534L187.007 202.345H89.6399L95.5678 209.261C99.9711 214.398 102.344 220.912 103.592 226.66C104.832 232.368 104.893 236.999 104.893 238.095V369.644C104.893 370.74 104.832 375.371 103.592 381.079C102.344 386.827 99.9711 393.341 95.5678 398.478L89.6399 405.394H165.256L160.186 398.68C155.531 392.515 153.125 385.217 151.903 379.304C151.297 376.373 150.995 373.845 150.845 372.063C150.77 371.174 150.733 370.475 150.715 370.01C150.706 369.777 150.702 369.604 150.7 369.494L150.698 369.379L150.698 369.365V335.57L182.538 335.57L182.559 335.57L182.538 331.38ZM109.083 238.095C109.083 235.581 108.803 218.265 98.7488 206.534C99.8924 207.868 100.909 209.275 101.814 210.724C108.863 222.012 109.083 235.867 109.083 238.095ZM166.053 229.716L166.056 229.716L166.097 229.716C166.144 229.717 166.224 229.719 166.336 229.723C166.559 229.73 166.907 229.746 167.36 229.78C168.269 229.847 169.595 229.982 171.199 230.258C174.424 230.811 178.664 231.911 182.854 234.069C187.026 236.217 191.089 239.38 194.121 244.063C197.139 248.726 199.296 255.142 199.296 264.069C199.296 287.539 191.852 299.818 182.232 306.546C173.398 312.724 162.039 314.742 150.698 315.31V229.716L166.053 229.716Z" fill="url(#paint0_linear_2012_10592)"/>
<path d="M944.415 202.345H886.536L890.305 208.677C893.665 214.321 895.915 219.187 897.356 224.731C898.806 230.305 899.491 236.763 899.491 245.636V327.498L812.586 202.345H764.912L768.494 208.613C771.742 214.297 774.004 219.186 775.484 224.753C776.968 230.335 777.717 236.792 777.717 245.636V362.103C777.717 370.946 776.968 377.404 775.484 382.986C774.004 388.553 771.742 393.442 768.494 399.126L764.912 405.394H822.362L818.78 399.126C815.516 393.414 813.185 388.515 811.639 382.943C810.092 377.366 809.278 370.919 809.278 362.103V281.52L885.122 386.788C894.878 402.26 909.407 409.628 927.56 409.023L931.61 408.888V243.96C931.61 228.534 934.47 219.749 940.833 208.613L944.415 202.345Z" fill="url(#paint1_linear_2012_10592)"/>
<path fill-rule="evenodd" clip-rule="evenodd" d="M725.876 223.163C742.207 240.347 751.887 266.872 751.887 304.287C751.887 342.108 742.213 368.451 725.848 385.337C709.469 402.236 687.009 409.024 662.791 409.024C638.571 409.024 616.176 402.236 599.866 385.33C583.573 368.442 573.974 342.1 573.974 304.287C573.974 266.338 583.571 239.797 599.85 222.738C616.152 205.654 638.548 198.713 662.791 198.713C687.075 198.713 709.525 205.957 725.876 223.163ZM692.675 379.139C699.919 379.139 704.169 376.462 706.846 372.274C709.733 367.758 711.109 360.967 711.109 352.327C711.109 350.396 711.122 348.359 711.136 346.242V346.209C711.23 331.989 711.347 314.178 707.634 300.951L707.624 300.915L707.615 300.88C702.164 280.057 696.448 263.951 684.981 252.872C673.681 241.954 656.091 235.301 625.365 235.301C620.705 235.301 617.502 237.164 615.256 241.134C612.808 245.461 611.406 252.512 611.678 262.841L611.679 262.896V262.951C611.679 276.454 614.116 293.112 619.073 311.285L619.077 311.3C624.053 329.824 630.754 346.767 641.971 359.07C653.015 371.183 668.753 379.139 692.675 379.139Z" fill="url(#paint2_linear_2012_10592)"/>
<path d="M571.225 384.23L578.311 376.629L567.935 377.19C563.814 377.413 559.82 377.748 555.889 378.078C549.478 378.615 543.235 379.139 536.88 379.139C512.957 379.139 497.22 371.183 486.176 359.07C474.958 346.767 468.258 329.824 463.281 311.3L463.272 311.269C458.322 293.393 455.883 276.458 455.883 263.231V263.176L455.882 263.122C455.61 252.645 457.014 245.522 459.466 241.159C461.714 237.159 464.913 235.301 469.569 235.301C488.86 235.301 502.373 238.316 512.225 243.42C521.988 248.478 528.487 255.758 533.477 264.95L536.467 270.458L572.591 225.894L570.11 223.229C554.017 205.944 531.254 198.713 506.995 198.713C482.752 198.713 460.357 205.654 444.055 222.738C427.776 239.797 418.178 266.338 418.178 304.287C418.178 342.1 427.778 368.442 444.07 385.33C460.38 402.236 482.775 409.024 506.995 409.024C531.796 409.024 554.845 401.802 571.225 384.23Z" fill="url(#paint3_linear_2012_10592)"/>
<path d="M364.282 202.624H435.174L427.156 209.914C415.142 220.835 406.199 231.412 397.772 245.547L397.754 245.578C393.468 252.629 383.731 269.736 375.024 285.157C370.68 292.85 366.606 300.1 363.618 305.426C362.124 308.089 360.901 310.271 360.053 311.787L359.262 313.201V360.148C359.262 370.207 359.887 377.06 361.363 382.77C362.82 388.408 365.163 393.154 368.917 398.919L373.134 405.394H296.543L303.474 398.281C308.231 393.399 310.568 388.806 311.8 382.925C313.09 376.767 313.177 369.21 313.177 358.193V316.319L307.465 306.583C303.655 300.089 298.514 291.326 293.19 282.249C282.559 264.124 271.192 244.737 268.236 239.67C262.564 230.222 253.882 219.099 243.87 209.898L235.954 202.624H320.425L315.762 209.23C312.472 213.891 311.089 216.758 310.818 219.512C310.552 222.222 311.304 225.528 314.105 231.141C315.932 234.546 318.315 239.115 321.123 244.497C327.032 255.824 334.819 270.75 343.244 286.007L343.919 284.73C346.525 279.802 350.061 273.122 353.781 266.119C361.174 252.201 369.345 236.905 372.342 231.618C374.847 226.839 375.567 223.112 375.177 219.885C374.783 216.627 373.189 213.313 370.008 209.496L364.282 202.624Z" fill="url(#paint4_linear_2012_10592)"/>
<path d="M635.749 598.596H519.932C519.932 578.061 589.203 505.504 589.203 483.6C589.203 478.946 584.823 477.577 580.989 477.577C554.431 477.577 543.479 506.326 543.479 506.326L529.241 472.374C544.574 458.958 556.895 458.958 570.311 458.958C590.846 458.958 622.607 478.398 621.786 499.754C621.512 514.54 573.049 584.906 573.049 584.906C573.049 584.906 575.787 584.906 579.347 584.906C587.013 584.906 598.513 584.633 600.977 583.264C604.81 581.073 621.786 564.098 621.786 564.098L635.749 598.596Z" fill="#D2CDBC"/>
<path d="M699.524 457.863C744.427 457.863 760.581 491.814 760.581 530.694C760.581 582.442 732.927 601.061 699.524 601.061C665.846 601.061 638.74 582.168 638.74 529.325C638.74 476.208 665.846 457.863 699.524 457.863ZM674.334 533.432C676.524 541.098 678.441 548.491 680.905 555.062L709.38 493.183C703.083 485.243 693.5 480.041 676.25 480.041C668.584 480.041 665.572 484.148 665.572 492.088C665.572 500.302 670.227 517.825 674.334 533.432ZM721.154 581.073C728.82 581.073 731.284 572.312 731.284 566.288C731.284 556.979 727.177 540.824 723.07 527.956C720.88 521.111 719.237 513.992 716.773 507.421L688.024 567.931C694.321 576.145 704.178 581.073 721.154 581.073Z" fill="#D2CDBC"/>
<path d="M878.266 598.596H762.448C762.448 578.061 831.72 505.504 831.72 483.6C831.72 478.946 827.339 477.577 823.506 477.577C796.947 477.577 785.995 506.326 785.995 506.326L771.758 472.374C787.09 458.958 799.411 458.958 812.828 458.958C833.363 458.958 865.124 478.398 864.302 499.754C864.028 514.54 815.566 584.906 815.566 584.906C815.566 584.906 818.304 584.906 821.863 584.906C829.53 584.906 841.029 584.633 843.493 583.264C847.327 581.073 864.302 564.098 864.302 564.098L878.266 598.596Z" fill="#D2CDBC"/>
<path d="M919.129 514.813C921.319 517.551 994.698 528.777 994.971 571.216V571.49C994.971 592.299 959.925 632 937.473 632C912.831 632 892.022 613.929 884.63 598.049C884.63 598.049 918.033 604.62 939.39 604.62C951.985 604.62 959.925 602.156 959.925 587.918C959.925 556.431 899.962 536.717 899.962 536.717V464.16H987.579L976.627 503.314L963.21 490.445C960.746 487.981 958.008 486.612 954.449 486.338H926.521C923.236 499.481 919.129 514.813 919.129 514.813Z" fill="#D2CDBC"/>
<path d="M469.63 585.958L474.627 580.597L467.309 580.993C464.403 581.15 461.586 581.386 458.813 581.619C454.292 581.998 449.889 582.367 445.407 582.367C428.535 582.367 417.436 576.756 409.647 568.213C401.736 559.536 397.01 547.587 393.5 534.523L393.494 534.501C390.003 521.893 388.283 509.95 388.283 500.621V500.583L388.282 500.544C388.09 493.155 389.08 488.131 390.81 485.055C392.395 482.234 394.652 480.923 397.935 480.923C411.54 480.923 421.071 483.05 428.019 486.649C434.904 490.216 439.488 495.351 443.007 501.834L445.116 505.718L470.593 474.289L468.843 472.409C457.493 460.219 441.439 455.119 424.33 455.119C407.233 455.119 391.438 460.014 379.941 472.063C368.46 484.094 361.691 502.813 361.691 529.577C361.691 556.245 368.461 574.823 379.952 586.733C391.455 598.656 407.249 603.444 424.33 603.444C441.822 603.444 458.077 598.35 469.63 585.958Z" fill="#D2CDBC"/>
<path fill-rule="evenodd" clip-rule="evenodd" d="M207.806 548.684C207.821 551.639 207.825 551.639 207.825 551.639L207.829 551.639L207.842 551.639L207.877 551.638C207.906 551.638 207.944 551.637 207.992 551.636L208.097 551.633L208.24 551.628L208.384 551.622C208.717 551.608 209.189 551.579 209.78 551.526C210.961 551.42 212.625 551.214 214.611 550.811C218.573 550.006 223.884 548.407 229.219 545.211C240.079 538.706 250.551 525.864 250.551 501.212L250.55 501.198C250.499 490.597 248.074 482.451 244.318 476.227C240.564 470.007 235.576 465.866 230.637 463.124C225.715 460.391 220.829 459.038 217.193 458.364C215.369 458.026 213.842 457.855 212.758 457.769C212.216 457.726 211.782 457.703 211.477 457.692C211.395 457.689 211.323 457.687 211.26 457.685C211.205 457.684 211.156 457.683 211.115 457.682L211.01 457.68L210.977 457.68L210.966 457.68L210.961 457.68C210.961 457.68 210.958 457.68 210.958 460.635L210.958 457.68H142.288L146.469 462.558C149.575 466.181 151.248 470.775 152.128 474.829C153.003 478.854 153.046 482.121 153.046 482.893V575.67C153.046 576.443 153.003 579.71 152.128 583.735C151.248 587.789 149.575 592.383 146.469 596.006L142.288 600.884H195.618L192.042 596.149C188.759 591.8 187.062 586.654 186.2 582.484C185.773 580.416 185.56 578.633 185.454 577.377C185.401 576.75 185.375 576.257 185.363 575.929L185.36 575.844L185.357 575.775C185.354 575.686 185.353 575.616 185.352 575.565L185.351 575.484L185.351 575.473V575.471L185.357 575.775C185.284 574.744 185.351 575.473 185.351 575.473V551.639L207.806 551.639L207.821 551.639L207.806 548.684ZM196.211 476.985L196.184 476.984H196.182L196.18 476.984L185.351 476.984V537.351C193.349 536.95 201.36 535.527 207.59 531.17C214.375 526.424 219.625 517.765 219.625 501.212C219.625 494.916 218.104 490.392 215.975 487.103C213.837 483.8 210.972 481.569 208.029 480.054C205.074 478.532 202.084 477.757 199.809 477.366C198.678 477.172 197.743 477.076 197.102 477.029C196.782 477.006 196.537 476.994 196.379 476.989C196.301 476.986 196.244 476.985 196.211 476.985Z" fill="#D2CDBC"/>
<path fill-rule="evenodd" clip-rule="evenodd" d="M373.376 600.883H311.958L316.329 595.966C320.497 591.277 321.712 586.728 320.593 581.698C318.96 575.661 316.894 569.988 315.227 565.808C314.392 563.714 313.661 562.005 313.14 560.822L313.086 560.7H274.52L271.74 571.163L271.724 571.215C269.514 578.45 268.111 583.298 268.111 587.292C268.111 590.311 269.032 593.067 271.294 596.199L274.677 600.883H227.336L232.091 595.891C239.735 587.865 244.219 581.704 248.78 569.363L278.132 483.276L278.148 483.234C281.067 475.449 282.096 470.927 282.096 466.938C282.096 464.302 281.754 462.038 280.852 459.152L279.653 455.316H307.604L343.353 553.323C344.421 555.895 345.462 558.533 346.513 561.195L346.515 561.2C348.638 566.578 350.799 572.049 353.286 577.252C357.001 585.023 361.186 591.586 366.422 595.579L373.376 600.883ZM281.001 541.618L305.958 541.764L293.186 508.44L281.001 541.618Z" fill="#D2CDBC"/>
<path fill-rule="evenodd" clip-rule="evenodd" d="M146.04 600.883H84.6215L88.9927 595.966C93.1607 591.277 94.3753 586.728 93.2565 581.698C91.6241 575.661 89.5576 569.988 87.8904 565.808C87.0555 563.714 86.3243 562.005 85.8038 560.822L85.7498 560.7H47.1835L44.4041 571.163L44.3882 571.215C42.1777 578.45 40.7746 583.298 40.7746 587.292C40.7746 590.311 41.6957 593.067 43.9578 596.199L47.3411 600.883H0L4.75465 595.891C12.3986 587.865 16.883 581.704 21.4437 569.363L50.796 483.276L50.8116 483.234C53.7312 475.449 54.7601 470.927 54.7601 466.938C54.7601 464.302 54.4177 462.038 53.5157 459.152L52.3169 455.316H80.2679L116.016 553.323C117.084 555.895 118.126 558.533 119.176 561.194L119.179 561.199L119.179 561.201C121.303 566.579 123.463 572.05 125.95 577.252C129.665 585.023 133.85 591.586 139.086 595.579L146.04 600.883ZM53.6653 541.618L78.6217 541.764L65.8499 508.44L53.6653 541.618Z" fill="#D2CDBC"/>
<path d="M641.333 593.013H525.515C525.515 572.478 594.787 499.921 594.787 478.017C594.787 473.362 590.406 471.993 586.573 471.993C560.014 471.993 549.062 500.742 549.062 500.742L534.824 466.791C550.157 453.375 562.478 453.375 575.894 453.375C596.429 453.375 628.19 472.815 627.369 494.171C627.095 508.956 578.632 579.323 578.632 579.323C578.632 579.323 581.37 579.323 584.93 579.323C592.596 579.323 604.096 579.049 606.56 577.68C610.393 575.49 627.369 558.514 627.369 558.514L641.333 593.013Z" fill="url(#paint5_linear_2012_10592)"/>
<path d="M705.107 452.28C750.01 452.28 766.164 486.231 766.164 525.111C766.164 576.859 738.51 595.477 705.107 595.477C671.429 595.477 644.323 576.585 644.323 523.742C644.323 470.624 671.429 452.28 705.107 452.28ZM679.917 527.849C682.108 535.515 684.024 542.908 686.488 549.479L714.964 487.6C708.666 479.66 699.083 474.458 681.834 474.458C674.167 474.458 671.156 478.565 671.156 486.505C671.156 494.719 675.81 512.242 679.917 527.849ZM726.737 575.49C734.403 575.49 736.868 566.728 736.868 560.705C736.868 551.395 732.761 535.241 728.654 522.373C726.463 515.528 724.82 508.409 722.356 501.838L693.607 562.347C699.905 570.561 709.761 575.49 726.737 575.49Z" fill="url(#paint6_linear_2012_10592)"/>
<path d="M883.849 593.013H768.032C768.032 572.478 837.303 499.921 837.303 478.017C837.303 473.362 832.922 471.993 829.089 471.993C802.531 471.993 791.578 500.742 791.578 500.742L777.341 466.791C792.674 453.375 804.995 453.375 818.411 453.375C838.946 453.375 870.707 472.815 869.885 494.171C869.612 508.956 821.149 579.323 821.149 579.323C821.149 579.323 823.887 579.323 827.446 579.323C835.113 579.323 846.612 579.049 849.077 577.68C852.91 575.49 869.885 558.514 869.885 558.514L883.849 593.013Z" fill="url(#paint7_linear_2012_10592)"/>
<path d="M924.712 509.23C926.902 511.968 1000.28 523.194 1000.55 565.633V565.907C1000.55 586.716 965.508 626.417 943.056 626.417C918.414 626.417 897.606 608.346 890.213 592.465C890.213 592.465 923.617 599.037 944.973 599.037C957.568 599.037 965.508 596.573 965.508 582.335C965.508 550.848 905.546 531.134 905.546 531.134V458.577H993.162L982.21 497.731L968.794 484.862C966.329 482.398 963.591 481.029 960.032 480.755H932.104C928.819 493.897 924.712 509.23 924.712 509.23Z" fill="url(#paint8_linear_2012_10592)"/>
<path d="M475.213 580.374L480.21 575.014L472.892 575.409C469.986 575.566 467.169 575.803 464.397 576.035C459.875 576.415 455.472 576.784 450.99 576.784C434.118 576.784 423.019 571.172 415.23 562.63C407.319 553.953 402.594 542.004 399.084 528.939L399.078 528.917C395.586 516.31 393.866 504.367 393.866 495.038V494.999L393.865 494.961C393.673 487.572 394.663 482.548 396.393 479.471C397.978 476.65 400.235 475.34 403.518 475.34C417.123 475.34 426.654 477.467 433.602 481.066C440.488 484.633 445.071 489.767 448.59 496.25L450.699 500.135L476.176 468.705L474.426 466.826C463.077 454.636 447.022 449.536 429.913 449.536C412.816 449.536 397.021 454.431 385.524 466.48C374.043 478.511 367.274 497.229 367.274 523.994C367.274 550.662 374.044 569.239 385.535 581.15C397.038 593.073 412.832 597.861 429.913 597.861C447.405 597.861 463.661 592.767 475.213 580.374Z" fill="url(#paint9_linear_2012_10592)"/>
<path fill-rule="evenodd" clip-rule="evenodd" d="M213.389 543.101C213.404 546.056 213.408 546.056 213.408 546.056L213.413 546.056L213.425 546.056L213.461 546.055C213.489 546.055 213.527 546.054 213.575 546.053L213.68 546.05L213.823 546.045L213.968 546.039C214.301 546.024 214.772 545.996 215.363 545.943C216.544 545.837 218.208 545.63 220.194 545.227C224.156 544.423 229.467 542.824 234.803 539.628C245.662 533.123 256.134 520.281 256.134 495.629L256.134 495.615C256.082 485.014 253.658 476.868 249.901 470.644C246.147 464.423 241.159 460.283 236.221 457.541C231.299 454.808 226.413 453.455 222.777 452.78C220.953 452.442 219.426 452.272 218.341 452.185C217.799 452.142 217.366 452.12 217.06 452.109C216.979 452.106 216.906 452.104 216.843 452.102C216.788 452.1 216.74 452.099 216.699 452.099L216.594 452.097L216.561 452.097L216.549 452.097L216.545 452.097C216.545 452.097 216.541 452.097 216.541 455.052L216.541 452.097H147.872L152.052 456.975C155.158 460.598 156.832 465.192 157.712 469.246C158.586 473.271 158.629 476.537 158.629 477.31V570.087C158.629 570.86 158.586 574.126 157.712 578.152C156.832 582.205 155.158 586.8 152.052 590.423L147.872 595.3H201.201L197.625 590.565C194.342 586.217 192.646 581.071 191.784 576.9C191.356 574.833 191.143 573.05 191.037 571.793C190.984 571.166 190.959 570.673 190.946 570.345L190.943 570.261L190.941 570.192C190.938 570.103 190.936 570.033 190.935 569.982L190.934 569.9L190.934 569.89V569.888L190.941 570.192C190.867 569.161 190.934 569.89 190.934 569.89V546.056L213.389 546.056L213.404 546.056L213.389 543.101ZM201.794 471.401L201.768 471.401H201.765L201.763 471.401L190.934 471.401V531.768C198.932 531.367 206.943 529.944 213.173 525.586C219.958 520.841 225.208 512.181 225.208 495.629C225.208 489.333 223.687 484.808 221.558 481.52C219.42 478.217 216.555 475.986 213.613 474.471C210.657 472.949 207.667 472.173 205.392 471.783C204.261 471.589 203.326 471.493 202.685 471.446C202.365 471.422 202.12 471.411 201.963 471.406C201.884 471.403 201.827 471.402 201.794 471.401Z" fill="url(#paint10_linear_2012_10592)"/>
<path fill-rule="evenodd" clip-rule="evenodd" d="M378.96 595.3H317.541L321.912 590.382C326.08 585.693 327.295 581.145 326.176 576.114C324.544 570.078 322.477 564.405 320.81 560.224C319.975 558.131 319.244 556.421 318.723 555.239L318.669 555.116H280.103L277.324 565.58L277.308 565.632C275.097 572.866 273.694 577.715 273.694 581.709C273.694 584.727 274.615 587.483 276.877 590.615L280.261 595.3H232.919L237.674 590.308C245.318 582.282 249.802 576.12 254.363 563.78L283.715 477.693L283.731 477.651C286.651 469.866 287.68 465.344 287.68 461.355C287.68 458.719 287.337 456.455 286.435 453.569L285.236 449.733H313.187L348.936 547.74C350.004 550.312 351.046 552.95 352.096 555.612L352.098 555.616C354.222 560.995 356.382 566.466 358.869 571.668C362.585 579.439 366.77 586.003 372.006 589.996L378.96 595.3ZM286.585 536.034L311.541 536.181L298.769 502.857L286.585 536.034Z" fill="url(#paint11_linear_2012_10592)"/>
<path fill-rule="evenodd" clip-rule="evenodd" d="M151.623 595.3H90.2048L94.576 590.382C98.7439 585.693 99.9586 581.145 98.8398 576.114C97.2073 570.078 95.1409 564.405 93.4736 560.224C92.6387 558.131 91.9076 556.421 91.3871 555.239L91.3331 555.116H52.7667L49.9874 565.58L49.9715 565.632C47.7609 572.866 46.3578 577.715 46.3578 581.709C46.3578 584.727 47.2789 587.483 49.541 590.615L52.9244 595.3H5.58325L10.3379 590.308C17.9819 582.282 22.4663 576.12 27.0269 563.78L56.3792 477.693L56.3949 477.651C59.3145 469.866 60.3433 465.344 60.3433 461.355C60.3433 458.719 60.001 456.455 59.099 453.569L57.9002 449.733H85.8511L121.6 547.74C122.667 550.311 123.709 552.949 124.76 555.61L124.762 555.616L124.763 555.618C126.886 560.996 129.046 566.467 131.533 571.668C135.248 579.439 139.434 586.003 144.669 589.996L151.623 595.3ZM59.2485 536.034L84.2049 536.181L71.4331 502.857L59.2485 536.034Z" fill="url(#paint12_linear_2012_10592)"/>
<defs>
<linearGradient id="paint0_linear_2012_10592" x1="517.028" y1="198.713" x2="517.028" y2="409.057" gradientUnits="userSpaceOnUse">
<stop stop-color="#FFBB01"/>
<stop offset="1" stop-color="#FFA401"/>
</linearGradient>
<linearGradient id="paint1_linear_2012_10592" x1="517.028" y1="198.713" x2="517.028" y2="409.057" gradientUnits="userSpaceOnUse">
<stop stop-color="#FFBB01"/>
<stop offset="1" stop-color="#FFA401"/>
</linearGradient>
<linearGradient id="paint2_linear_2012_10592" x1="517.028" y1="198.713" x2="517.028" y2="409.057" gradientUnits="userSpaceOnUse">
<stop stop-color="#FFBB01"/>
<stop offset="1" stop-color="#FFA401"/>
</linearGradient>
<linearGradient id="paint3_linear_2012_10592" x1="517.028" y1="198.713" x2="517.028" y2="409.057" gradientUnits="userSpaceOnUse">
<stop stop-color="#FFBB01"/>
<stop offset="1" stop-color="#FFA401"/>
</linearGradient>
<linearGradient id="paint4_linear_2012_10592" x1="517.028" y1="198.713" x2="517.028" y2="409.057" gradientUnits="userSpaceOnUse">
<stop stop-color="#FFBB01"/>
<stop offset="1" stop-color="#FFA401"/>
</linearGradient>
<linearGradient id="paint5_linear_2012_10592" x1="161.445" y1="450.395" x2="161.445" y2="595.855" gradientUnits="userSpaceOnUse">
<stop stop-color="#2D7353"/>
<stop offset="1" stop-color="#235940"/>
</linearGradient>
<linearGradient id="paint6_linear_2012_10592" x1="161.445" y1="450.395" x2="161.445" y2="595.855" gradientUnits="userSpaceOnUse">
<stop stop-color="#2D7353"/>
<stop offset="1" stop-color="#235940"/>
</linearGradient>
<linearGradient id="paint7_linear_2012_10592" x1="161.445" y1="450.395" x2="161.445" y2="595.855" gradientUnits="userSpaceOnUse">
<stop stop-color="#2D7353"/>
<stop offset="1" stop-color="#235940"/>
</linearGradient>
<linearGradient id="paint8_linear_2012_10592" x1="161.445" y1="450.395" x2="161.445" y2="595.855" gradientUnits="userSpaceOnUse">
<stop stop-color="#2D7353"/>
<stop offset="1" stop-color="#235940"/>
</linearGradient>
<linearGradient id="paint9_linear_2012_10592" x1="161.445" y1="450.395" x2="161.445" y2="595.855" gradientUnits="userSpaceOnUse">
<stop stop-color="#2D7353"/>
<stop offset="1" stop-color="#235940"/>
</linearGradient>
<linearGradient id="paint10_linear_2012_10592" x1="161.445" y1="450.395" x2="161.445" y2="595.855" gradientUnits="userSpaceOnUse">
<stop stop-color="#2D7353"/>
<stop offset="1" stop-color="#235940"/>
</linearGradient>
<linearGradient id="paint11_linear_2012_10592" x1="161.445" y1="450.395" x2="161.445" y2="595.855" gradientUnits="userSpaceOnUse">
<stop stop-color="#2D7353"/>
<stop offset="1" stop-color="#235940"/>
</linearGradient>
<linearGradient id="paint12_linear_2012_10592" x1="161.445" y1="450.395" x2="161.445" y2="595.855" gradientUnits="userSpaceOnUse">
<stop stop-color="#2D7353"/>
<stop offset="1" stop-color="#235940"/>
</linearGradient>
</defs>
</svg>
