<svg width="172" height="127" viewBox="0 0 172 127" fill="none" xmlns="http://www.w3.org/2000/svg">
<path d="M105.843 64.3106C84.7855 32.69 45.0274 11.1034 8.66235 2.49988C6.10678 1.94204 3.56982 1.33021 0.982502 0.914062L0.89209 1.25644L15.459 6.8249C29.8477 12.5988 44.3746 18.1337 58.1678 25.2037C71.7551 32.52 84.4417 41.8591 95.5382 52.6385C99.1703 56.3111 102.707 60.1592 105.534 64.4843L105.843 64.3106Z" fill="#3F551F"/>
<path d="M54.3133 21.3227C54.3133 21.3227 53.2819 35.2097 58.2814 48.7928C63.2792 62.3762 77.0936 92.9177 77.0936 92.9177C77.0936 92.9177 74.191 56.8467 70.0966 46.6809C66.0022 36.515 54.3133 21.3227 54.3133 21.3227Z" fill="#3F551F"/>
<path d="M76.1711 36.3044C76.1711 36.3044 95.1214 50.976 111.087 59.0354C127.052 67.0949 171.108 82.4173 171.108 82.4173C171.108 82.4173 134.349 52.553 115.862 44.8715C97.3763 37.1901 76.1711 36.3044 76.1711 36.3044Z" fill="#3F551F"/>
<path d="M92.3624 48.7114C92.3624 48.7114 117.148 66.909 133.146 83.3776C149.152 99.8556 168.389 123.787 168.389 123.787C168.389 123.787 130.653 103.269 117.565 87.8475C104.479 72.4238 92.3624 48.7114 92.3624 48.7114Z" fill="#3F551F"/>
<path d="M88.1976 43.2973C88.1976 43.2973 86.1264 58.3227 94.5375 81.4062C102.949 104.49 116.809 126.398 116.809 126.398C116.809 126.398 113.785 83.4984 103.459 65.1399C93.1337 46.7793 88.1976 43.2973 88.1976 43.2973Z" fill="#3F551F"/>
</svg>
