<svg width="41" height="41" viewBox="0 0 41 41" fill="none" xmlns="http://www.w3.org/2000/svg">
<path d="M33.5882 28.856C34.0358 29.7555 34.3863 30.5536 34.3863 31.2589C34.3863 34.4557 31.4682 35.258 28.7867 35.258C28.0687 38.1719 25.0451 38.4675 23.698 38.4591C22.0383 38.4464 20.7883 37.2259 20.7883 35.5241C20.7883 31.1237 20.7883 14.7386 20.7883 7.40753C20.7883 4.0925 21.7469 3.25635 23.698 3.25635C28.0687 3.25635 29.8804 5.47341 30.3872 7.25973C33.5333 7.64402 36.7174 10.7395 36.7892 15.258C36.8145 16.9472 36.1558 18.8349 35.1887 20.8577C36.0164 21.6981 36.7892 22.4582 36.7892 24.0587C36.7892 26.0013 36.2824 27.9523 33.5882 28.856Z" stroke="#3D521E" stroke-width="1.6" stroke-miterlimit="10" stroke-linecap="round"/>
<path d="M6.23161 20.6592C5.46303 21.4996 4.78735 22.4582 4.78735 24.0587C4.78735 25.9971 6.09225 27.9523 8.78652 28.856C6.60746 32.5258 9.41996 35.258 12.7899 35.258C13.5078 38.1719 16.4259 38.4591 17.8786 38.4591C19.5382 38.4591 20.7882 37.2259 20.7882 35.5241C20.7882 31.1237 20.7882 14.7386 20.7882 7.40753C20.7882 4.0925 19.8296 3.25635 17.8786 3.25635C13.5078 3.25635 10.898 5.47341 10.387 7.25973C7.2409 7.64402 4.78735 11.2589 4.78735 15.258C4.78735 16.9472 5.26455 18.6364 6.23161 20.6592Z" stroke="#3D521E" stroke-width="1.6" stroke-miterlimit="10" stroke-linecap="round"/>
<path d="M10.3871 20.0596H6.23169" stroke="#3D521E" stroke-width="1.6" stroke-miterlimit="10" stroke-linecap="round"/>
<path d="M13.588 20.0595C13.588 20.9421 12.8701 21.6558 11.9875 21.6558C11.1049 21.6558 10.387 20.9421 10.387 20.0595C10.387 19.1727 11.1049 18.459 11.9875 18.459C12.8701 18.459 13.588 19.1727 13.588 20.0595Z" stroke="#3D521E" stroke-width="1.6" stroke-miterlimit="10" stroke-linecap="round"/>
<path d="M20.7881 24.0586H15.1885V28.8559" stroke="#3D521E" stroke-width="1.6" stroke-miterlimit="10" stroke-linecap="round"/>
<path d="M16.7892 30.4565C16.7892 31.3433 16.0712 32.057 15.1886 32.057C14.306 32.057 13.5881 31.3433 13.5881 30.4565C13.5881 29.5739 14.306 28.856 15.1886 28.856C16.0712 28.856 16.7892 29.5739 16.7892 30.4565Z" stroke="#3D521E" stroke-width="1.6" stroke-miterlimit="10" stroke-linecap="round"/>
<path d="M20.7883 16.0563H16.7892V12.0571H13.5881" stroke="#3D521E" stroke-width="1.6" stroke-miterlimit="10" stroke-linecap="round"/>
<path d="M13.588 12.057C13.588 12.9397 12.8701 13.6576 11.9875 13.6576C11.1049 13.6576 10.387 12.9397 10.387 12.057C10.387 11.1744 11.1049 10.4565 11.9875 10.4565C12.8701 10.4565 13.588 11.1744 13.588 12.057Z" stroke="#3D521E" stroke-width="1.6" stroke-miterlimit="10" stroke-linecap="round"/>
<path d="M31.9876 12.057C31.9876 12.9397 31.274 13.6576 30.3871 13.6576C29.5045 13.6576 28.7866 12.9397 28.7866 12.057C28.7866 11.1744 29.5045 10.4565 30.3871 10.4565C31.274 10.4565 31.9876 11.1744 31.9876 12.057Z" stroke="#3D521E" stroke-width="1.6" stroke-miterlimit="10" stroke-linecap="round"/>
<path d="M20.7883 12.0571H28.7867" stroke="#3D521E" stroke-width="1.6" stroke-miterlimit="10" stroke-linecap="round"/>
<path d="M26.3879 20.8577V24.8568H33.5881V28.856" stroke="#3D521E" stroke-width="1.6" stroke-miterlimit="10" stroke-linecap="round"/>
<path d="M27.9884 19.2572C27.9884 20.1398 27.2705 20.8578 26.3879 20.8578C25.5053 20.8578 24.7874 20.1398 24.7874 19.2572C24.7874 18.3746 25.5053 17.6567 26.3879 17.6567C27.2705 17.6567 27.9884 18.3746 27.9884 19.2572Z" stroke="#3D521E" stroke-width="1.6" stroke-miterlimit="10" stroke-linecap="round"/>
<path d="M28.7866 30.4565C28.7866 31.3433 28.073 32.057 27.1904 32.057C26.3035 32.057 25.5898 31.3433 25.5898 30.4565C25.5898 29.5739 26.3035 28.856 27.1904 28.856C28.073 28.856 28.7866 29.5739 28.7866 30.4565Z" stroke="#3D521E" stroke-width="1.6" stroke-miterlimit="10" stroke-linecap="round"/>
<path d="M20.7883 30.4565H25.5899" stroke="#3D521E" stroke-width="1.6" stroke-miterlimit="10" stroke-linecap="round"/>
</svg>
