<svg width="41" height="41" viewBox="0 0 41 41" fill="none" xmlns="http://www.w3.org/2000/svg">
<path d="M34.8546 8.85596V14.4556H29.2549" stroke="#3D521E" stroke-width="1.6" stroke-miterlimit="10" stroke-linecap="round"/>
<path d="M6.05371 32.8594V27.2598H11.6534" stroke="#3D521E" stroke-width="1.6" stroke-miterlimit="10" stroke-linecap="round"/>
<path d="M22.1348 29.6582H18.8535L18.4523 27.0991C18.1356 27.0189 17.8949 26.9386 17.5739 26.7782L15.416 28.2182L13.0131 25.8196L14.4532 23.6574C14.2927 23.4167 14.2124 23.0957 14.1322 22.8593L11.6533 22.4581V19.0966L14.1322 18.6996C14.2124 18.3787 14.3729 18.138 14.4532 17.817L13.0131 15.8196L15.416 13.4167L17.5739 14.937C17.8146 14.7765 18.1356 14.6962 18.3721 14.616L18.8535 12.0569H22.215L22.612 14.616C22.8527 14.6962 23.1736 14.7765 23.4143 14.937L25.492 13.4167L27.8147 15.7393L26.3746 17.8973C26.5351 18.138 26.6153 18.4589 26.6956 18.6996L29.2547 19.0966V22.4581L26.7758 22.9395C26.6956 23.176 26.6153 23.4969 26.4549 23.8179L27.9751 25.8956L25.5723 28.2984L23.4143 26.8584C23.0934 27.0189 22.8527 27.0991 22.612 27.1794L22.1348 29.6582ZM23.0131 16.5375C22.612 16.2968 22.1348 16.1363 21.6533 15.9758L21.1719 15.8196L20.8552 13.6574H20.2133L19.8121 15.8956L19.3349 15.9758C18.8535 16.1363 18.3721 16.377 17.8146 16.6177L17.4135 16.7782L15.5722 15.4986L15.095 15.9758L16.3746 17.817L16.0537 18.2182C15.813 18.6194 15.6525 19.0966 15.5722 19.4978L15.492 20.0594L13.2538 20.4564V21.0983L15.416 21.4995L15.5722 21.9766C15.7327 22.3778 15.8932 22.9395 16.1339 23.4167L16.3746 23.8179L15.095 25.6591L15.5722 26.1363L17.4937 24.8567L17.9751 25.1777C18.3721 25.4184 18.8535 25.5788 19.3349 25.7393L19.8121 25.8956L20.1331 28.0577H20.775L21.1719 25.8196L21.6533 25.6591C22.1348 25.4986 22.612 25.3381 23.0934 25.0974L23.4946 24.8567L25.3358 26.1363L25.813 25.6591L24.4532 23.8179L24.7741 23.3364C25.0148 22.9395 25.1753 22.4581 25.3358 21.9766L25.492 21.4995L27.6542 21.018V20.3761L25.416 20.0594L25.2555 19.578C25.0951 19.0966 24.9346 18.6194 24.6939 18.138L24.4532 17.7368L25.7327 15.8956L25.3358 15.4986M20.454 23.9783C18.693 23.9783 17.253 22.5383 17.253 20.7773C17.253 19.0163 18.693 17.5763 20.454 17.5763C22.215 17.5763 23.655 19.0163 23.655 20.7773C23.655 22.6185 22.215 23.9783 20.454 23.9783ZM20.454 19.2571C19.5756 19.2571 18.8535 19.9792 18.8535 20.8576C18.8535 21.7359 19.5756 22.4581 20.454 22.4581C21.3324 22.4581 22.0545 21.7359 22.0545 20.8576C22.0545 19.8989 21.3324 19.2571 20.454 19.2571Z" fill="#3D521E"/>
<path d="M35.6526 20.8577C35.6526 29.2529 28.8494 36.0561 20.4541 36.0561C14.3477 36.0561 9.07741 32.454 6.66187 27.2597" stroke="#3D521E" stroke-width="1.6" stroke-miterlimit="10" stroke-linecap="round"/>
<path d="M5.25562 20.8577C5.25562 12.4624 12.0588 5.65918 20.4541 5.65918C26.5605 5.65918 31.8308 9.26138 34.2464 14.4556" stroke="#3D521E" stroke-width="1.6" stroke-miterlimit="10" stroke-linecap="round"/>
</svg>
