<svg width="41" height="41" viewBox="0 0 41 41" fill="none" xmlns="http://www.w3.org/2000/svg">
<g clip-path="url(#clip0_2012_2665)">
<path d="M33.0012 32.8592H31.3205V31.2587H33.0012C33.698 31.2587 34.3821 31.1278 35.0282 30.8744C37.1482 30.034 38.5206 28.0197 38.5206 25.735C38.5206 22.5551 35.8348 19.6582 32.8872 19.6582H31.9793L32.0468 18.7629C32.0975 18.3406 32.1228 17.9901 32.1228 17.6565C32.1228 12.724 28.2546 8.85581 23.3137 8.85581C19.5806 8.85581 16.464 11.0053 15.1845 14.4597L14.7495 15.6337L13.8669 14.7469C13.1659 14.0458 12.1608 13.6573 11.0333 13.6573C8.91334 13.6573 7.30861 15.3761 7.30861 17.6565L7.34239 18.4631L6.73428 18.6278C4.8635 19.1472 1.7216 20.6759 1.7216 25.1227C1.7216 28.5053 4.47499 31.2587 7.85759 31.2587H8.92178V32.8592H7.85759C3.59238 32.8592 0.121094 29.3879 0.121094 25.1227C0.121094 21.3051 2.15235 18.4715 5.72077 17.268C5.90235 14.2697 8.12364 12.0568 11.0333 12.0568C12.1693 12.0568 13.2292 12.3524 14.1118 12.9099C15.8264 9.39635 19.2639 7.25952 23.3137 7.25952C29.1499 7.25952 33.7191 11.8246 33.7191 17.6565C33.7191 17.8085 33.7191 17.9605 33.7107 18.121C37.2284 18.6024 40.1212 21.9555 40.1212 25.735C40.1212 28.6827 38.3517 31.2798 35.6152 32.3609C34.7791 32.6903 33.9007 32.8592 33.0012 32.8592Z" fill="#3D521E"/>
<path d="M31.3205 37.6565C31.3205 38.9825 30.2479 40.0593 28.9218 40.0593C27.5958 40.0593 26.5232 38.9825 26.5232 37.6565C26.5232 36.3304 27.5958 35.2578 28.9218 35.2578C30.2479 35.2578 31.3205 36.3304 31.3205 37.6565Z" stroke="#3D521E" stroke-width="1.6" stroke-miterlimit="10" stroke-linecap="round" stroke-linejoin="round"/>
<path d="M13.7192 37.6565C13.7192 38.9825 12.6465 40.0593 11.3205 40.0593C9.99451 40.0593 8.92188 38.9825 8.92188 37.6565C8.92188 36.3304 9.99451 35.2578 11.3205 35.2578C12.6465 35.2578 13.7192 36.3304 13.7192 37.6565Z" stroke="#3D521E" stroke-width="1.6" stroke-miterlimit="10" stroke-linecap="round" stroke-linejoin="round"/>
<path d="M15.3195 21.6555L12.6168 24.8988C11.7806 25.9081 11.3203 27.1749 11.3203 28.4841V35.2577" stroke="#3D521E" stroke-width="1.6" stroke-miterlimit="10" stroke-linecap="round" stroke-linejoin="round"/>
<path d="M28.9218 35.2577V28.4841C28.9218 27.1749 28.4615 25.9081 27.6253 24.8988L24.9226 21.6555" stroke="#3D521E" stroke-width="1.6" stroke-miterlimit="10" stroke-linecap="round" stroke-linejoin="round"/>
<path d="M22.5197 37.6565C22.5197 38.9825 21.4471 40.0593 20.1211 40.0593C18.795 40.0593 17.7224 38.9825 17.7224 37.6565C17.7224 36.3304 18.795 35.2578 20.1211 35.2578C21.4471 35.2578 22.5197 36.3304 22.5197 37.6565Z" stroke="#3D521E" stroke-width="1.6" stroke-miterlimit="10" stroke-linecap="round" stroke-linejoin="round"/>
<path d="M20.1211 35.2577V21.6555" stroke="#3D521E" stroke-width="1.6" stroke-miterlimit="10" stroke-linecap="round" stroke-linejoin="round"/>
</g>
<defs>
<clipPath id="clip0_2012_2665">
<rect width="40.0001" height="40" fill="white" transform="translate(0.121094 0.857422)"/>
</clipPath>
</defs>
</svg>
