<svg width="41" height="41" viewBox="0 0 41 41" fill="none" xmlns="http://www.w3.org/2000/svg">
<g clip-path="url(#clip0_2012_2712)">
<path d="M39.6559 19.257C39.6559 20.1396 38.9379 20.8575 38.0553 20.8575C37.1685 20.8575 36.4548 20.1396 36.4548 19.257C36.4548 18.3744 37.1685 17.6565 38.0553 17.6565C38.9379 17.6565 39.6559 18.3744 39.6559 19.257Z" stroke="#3D521E" stroke-width="1.6" stroke-linecap="round"/>
<path d="M37.6542 21.4106L33.8282 25.4098C33.6804 25.566 33.4735 25.6589 33.2539 25.6589H31.7083C32.0292 25.1437 32.3333 24.6074 32.6373 24.0584H32.9118L36.4929 20.3042L37.6542 21.4106Z" fill="#3D521E"/>
<path d="M4.45322 19.257C4.45322 20.1396 3.73953 20.8575 2.85271 20.8575C1.9701 20.8575 1.2522 20.1396 1.2522 19.257C1.2522 18.3744 1.9701 17.6565 2.85271 17.6565C3.73953 17.6565 4.45322 18.3744 4.45322 19.257Z" stroke="#3D521E" stroke-width="1.6" stroke-linecap="round"/>
<path d="M9.19986 25.6589H7.65425C7.43466 25.6589 7.22773 25.566 7.07993 25.4098L3.25391 21.4106L4.41522 20.3042L7.99631 24.0584H8.27081C8.57486 24.6074 8.87892 25.1437 9.19986 25.6589Z" fill="#3D521E"/>
<path d="M38.8536 28.8558C38.8536 29.7426 38.1357 30.4563 37.2531 30.4563C36.3705 30.4563 35.6526 29.7426 35.6526 28.8558C35.6526 27.9732 36.3705 27.2595 37.2531 27.2595C38.1357 27.2595 38.8536 27.9732 38.8536 28.8558Z" stroke="#3D521E" stroke-width="1.6" stroke-linecap="round"/>
<path d="M36.4549 37.6564C36.4549 38.539 35.737 39.2569 34.8544 39.2569C33.9718 39.2569 33.2539 38.539 33.2539 37.6564C33.2539 36.7738 33.9718 36.0559 34.8544 36.0559C35.737 36.0559 36.4549 36.7738 36.4549 37.6564Z" stroke="#3D521E" stroke-width="1.6" stroke-linecap="round"/>
<path d="M35.6526 28.0576V29.6581H28.748C29.1999 29.1598 29.6391 28.6235 30.0614 28.0576H35.6526Z" fill="#3D521E"/>
<path d="M34.4532 35.5069L33.2961 36.6091L29.7108 32.8591H25.4709C26.0368 32.3945 26.628 31.8582 27.2446 31.2585H30.0529C30.2725 31.2585 30.4794 31.3472 30.6314 31.5035L34.4532 35.5069Z" fill="#3D521E"/>
<path d="M5.25546 28.8558C5.25546 29.7426 4.53756 30.4563 3.65495 30.4563C2.77235 30.4563 2.05444 29.7426 2.05444 28.8558C2.05444 27.9732 2.77235 27.2595 3.65495 27.2595C4.53756 27.2595 5.25546 27.9732 5.25546 28.8558Z" stroke="#3D521E" stroke-width="1.6" stroke-linecap="round"/>
<path d="M7.65414 37.6564C7.65414 38.539 6.93624 39.2569 6.05364 39.2569C5.17103 39.2569 4.45312 38.539 4.45312 37.6564C4.45312 36.7738 5.17103 36.0559 6.05364 36.0559C6.93624 36.0559 7.65414 36.7738 7.65414 37.6564Z" stroke="#3D521E" stroke-width="1.6" stroke-linecap="round"/>
<path d="M12.1602 29.6581H5.25562V28.0576H10.8468C11.2691 28.6235 11.7083 29.1598 12.1602 29.6581Z" fill="#3D521E"/>
<path d="M15.4371 32.8591H11.1972L7.61193 36.6091L6.45483 35.5069L10.2766 31.5035C10.4287 31.3472 10.6356 31.2585 10.8552 31.2585H13.6635C14.28 31.8582 14.8712 32.3945 15.4371 32.8591Z" fill="#3D521E"/>
<path d="M20.4542 33.2561C20.4542 33.2561 6.8562 26.9765 6.8562 8.14208C15.2853 6.33887 17.8106 3.2561 20.4542 3.2561C23.0978 3.2561 25.6231 6.33887 34.0522 8.14208C34.0522 26.9765 20.4542 33.2561 20.4542 33.2561Z" stroke="#3D521E" stroke-width="1.6" stroke-linecap="round"/>
<path d="M20.4542 12.4834C19.2675 12.4834 18.3047 13.4462 18.3047 14.6329C18.3047 15.8195 19.2675 16.7824 20.4542 16.7824C21.6408 16.7824 22.6037 15.8195 22.6037 14.6329C22.6037 13.4462 21.6408 12.4834 20.4542 12.4834Z" fill="#3D521E"/>
<path d="M22.6037 21.0813H18.3047L19.3815 16.0686H21.5268L22.6037 21.0813Z" fill="#3D521E"/>
</g>
<defs>
<clipPath id="clip0_2012_2712">
<rect width="40.0001" height="40" fill="white" transform="translate(0.454102 0.857422)"/>
</clipPath>
</defs>
</svg>
