<svg width="41" height="41" viewBox="0 0 41 41" fill="none" xmlns="http://www.w3.org/2000/svg">
<g clip-path="url(#clip0_2012_2625)">
<path d="M2.51978 25.6592C2.51978 27.8678 5.66167 29.6583 10.5223 29.6583C15.383 29.6583 18.5206 27.8678 18.5206 25.6592" stroke="#3D521E" stroke-width="1.6" stroke-miterlimit="10" stroke-linejoin="round"/>
<path d="M2.51978 30.4565C2.51978 32.6694 5.66167 34.4557 10.5223 34.4557C15.383 34.4557 18.5206 32.6694 18.5206 30.4565" stroke="#3D521E" stroke-width="1.6" stroke-miterlimit="10" stroke-linejoin="round"/>
<path d="M2.51978 20.8577V35.258C2.51978 37.4666 5.66167 39.2572 10.5223 39.2572C15.383 39.2572 18.5206 37.4666 18.5206 35.258V20.8577" stroke="#3D521E" stroke-width="1.6" stroke-miterlimit="10" stroke-linejoin="round"/>
<path d="M10.5223 16.8586C5.66167 16.8586 2.51978 18.6492 2.51978 20.8578C2.51978 23.0664 5.66167 24.857 10.5223 24.857C15.383 24.857 18.5206 23.0664 18.5206 20.8578C18.5206 18.6492 15.383 16.8586 10.5223 16.8586Z" stroke="#3D521E" stroke-width="1.6" stroke-miterlimit="10" stroke-linejoin="round"/>
<path d="M29.72 16.8586C24.8594 16.8586 21.7217 18.6492 21.7217 20.8578C21.7217 23.0664 24.8594 24.857 29.72 24.857C34.5807 24.857 37.7226 23.0664 37.7226 20.8578C37.7226 18.6492 34.5807 16.8586 29.72 16.8586Z" stroke="#3D521E" stroke-width="1.6" stroke-miterlimit="10" stroke-linejoin="round"/>
<path d="M21.7217 25.6592C21.7217 27.8678 24.8594 29.6583 29.72 29.6583C34.5807 29.6583 37.7226 27.8678 37.7226 25.6592" stroke="#3D521E" stroke-width="1.6" stroke-miterlimit="10" stroke-linejoin="round"/>
<path d="M21.7217 30.4565C21.7217 32.6694 24.8594 34.4557 29.72 34.4557C34.5807 34.4557 37.7226 32.6694 37.7226 30.4565" stroke="#3D521E" stroke-width="1.6" stroke-miterlimit="10" stroke-linejoin="round"/>
<path d="M21.7217 20.8577V35.258C21.7217 37.4666 24.8594 39.2572 29.72 39.2572C34.5807 39.2572 37.7226 37.4666 37.7226 35.258V20.8577" stroke="#3D521E" stroke-width="1.6" stroke-miterlimit="10" stroke-linejoin="round"/>
<path d="M20.1211 2.45825C15.2605 2.45825 12.1228 4.24879 12.1228 6.45741C12.1228 8.67025 15.2605 10.4566 20.1211 10.4566C24.9818 10.4566 28.1195 8.67025 28.1195 6.45741C28.1195 4.24879 24.9818 2.45825 20.1211 2.45825Z" stroke="#3D521E" stroke-width="1.6" stroke-miterlimit="10" stroke-linejoin="round"/>
<path d="M12.1228 11.259C12.1228 13.4676 15.2605 15.2582 20.1211 15.2582C24.9818 15.2582 28.1195 13.4676 28.1195 11.259" stroke="#3D521E" stroke-width="1.6" stroke-miterlimit="10" stroke-linejoin="round"/>
<path d="M12.1228 6.45752V14.4558" stroke="#3D521E" stroke-width="1.6" stroke-miterlimit="10"/>
<path d="M28.1194 6.45752V14.4558" stroke="#3D521E" stroke-width="1.6" stroke-miterlimit="10"/>
</g>
<defs>
<clipPath id="clip0_2012_2625">
<rect width="40.0001" height="40" fill="white" transform="translate(0.121094 0.857666)"/>
</clipPath>
</defs>
</svg>
