<svg width="41" height="41" viewBox="0 0 41 41" fill="none" xmlns="http://www.w3.org/2000/svg">
<g clip-path="url(#clip0_2012_2705)">
<path d="M35.9867 33.6573H5.58969C3.82026 33.6573 2.38867 32.2257 2.38867 30.4563H39.1877C39.1877 32.2257 37.7561 33.6573 35.9867 33.6573Z" stroke="#3D521E" stroke-width="1.6" stroke-miterlimit="10" stroke-linecap="round" stroke-linejoin="round"/>
<path d="M33.6682 18.4588H30.3869L29.99 15.8954C29.669 15.8194 29.4283 15.7392 29.1074 15.5787L26.9494 17.0187L24.5466 14.6159L25.9866 12.4579C25.8261 12.2172 25.7501 11.8963 25.6699 11.6556L23.1868 11.2586V7.89712L25.6699 7.49594C25.7501 7.17921 25.9064 6.9385 25.9866 6.61756L24.5466 4.61587L26.9494 2.21722L29.1074 3.73749C29.3481 3.57702 29.669 3.49678 29.9098 3.41654L30.3869 0.857422H33.7484L34.1496 3.41654C34.3861 3.49678 34.7071 3.57702 34.9478 3.73749L37.0297 2.21722L39.3481 4.53563L37.9081 6.69779C38.0685 6.9385 38.1488 7.25945 38.229 7.49594L40.7881 7.89712V11.2586L38.3093 11.7358C38.229 11.9765 38.1488 12.2975 37.9883 12.6184L39.5086 14.6961L37.1099 17.099L34.9478 15.6589C34.6268 15.8194 34.3861 15.8954 34.1496 15.9757L33.6682 18.4588ZM31.6665 16.8583H32.3084L32.7096 14.6159L33.1868 14.4554C33.6682 14.2991 34.1496 14.1387 34.6268 13.898L35.028 13.6573L36.8692 14.9368L37.3464 14.4554L35.9866 12.6184L36.3076 12.137C36.5483 11.7358 36.7087 11.2586 36.8692 10.7772L37.0297 10.2958L39.1876 9.81857V9.17668L36.9495 8.85573L36.789 8.37854C36.6285 7.89712 36.468 7.4157 36.2273 6.9385L35.9866 6.53732L37.2662 4.6961L36.8692 4.29915L35.028 5.65894L34.5466 5.338C34.1496 5.09729 33.6682 4.93681 33.1868 4.77634L32.7096 4.61587L32.3886 2.45793H31.7467L31.3498 4.6961L30.8684 4.77634C30.3869 4.93681 29.9098 5.17752 29.3481 5.41823L28.9469 5.57871L27.1099 4.29915L26.6285 4.77634L27.9081 6.61756L27.5871 7.01874C27.3464 7.4157 27.1902 7.89712 27.1099 8.2983L27.0297 8.85573L24.7873 9.25692V9.89881L26.9494 10.2958L27.1099 10.7772C27.2662 11.1784 27.4266 11.7358 27.6673 12.2172L27.9081 12.6184L26.6285 14.4554L27.1099 14.9368L29.0271 13.6573L29.5086 13.9782C29.9098 14.2189 30.3869 14.3794 30.8684 14.5356L31.3498 14.6961L31.6665 16.8583ZM31.9875 12.7789C30.2265 12.7789 28.7864 11.3388 28.7864 9.57786C28.7864 7.81688 30.2265 6.37685 31.9875 6.37685C33.7484 6.37685 35.1885 7.81688 35.1885 9.57786C35.1885 11.4191 33.7484 12.7789 31.9875 12.7789ZM31.9875 8.05759C31.1091 8.05759 30.3869 8.7755 30.3869 9.6581C30.3869 10.5365 31.1091 11.2586 31.9875 11.2586C32.8701 11.2586 33.588 10.5365 33.588 9.6581C33.588 8.69948 32.8701 8.05759 31.9875 8.05759Z" fill="#3D521E"/>
<path d="M35.9867 19.2569V28.0576C35.9867 28.9402 35.2688 29.6581 34.3862 29.6581V31.2586C36.1514 31.2586 37.5872 29.8228 37.5872 28.0576V18.4124C37.0805 18.7375 36.5484 19.0247 35.9867 19.2569Z" fill="#3D521E"/>
<path d="M7.19028 8.85581H21.6286C21.6709 8.31104 21.7553 7.77895 21.8778 7.25952H7.19028C5.42507 7.25952 3.98926 8.69111 3.98926 10.4563V28.0577C3.98926 29.8229 5.42507 31.2587 7.19028 31.2587V29.6582C6.30767 29.6582 5.58977 28.9403 5.58977 28.0577V10.4563C5.58977 9.57371 6.30767 8.85581 7.19028 8.85581Z" fill="#3D521E"/>
</g>
<defs>
<clipPath id="clip0_2012_2705">
<rect width="40.0001" height="40" fill="white" transform="translate(0.788086 0.857422)"/>
</clipPath>
</defs>
</svg>
