<svg width="41" height="41" viewBox="0 0 41 41" fill="none" xmlns="http://www.w3.org/2000/svg">
<g clip-path="url(#clip0_2012_2686)">
<path d="M37.2531 38.4588C37.2531 39.3414 36.5394 40.0593 35.6526 40.0593H19.6559C18.7691 40.0593 18.0554 39.3414 18.0554 38.4588V12.0568C18.0554 11.1742 18.7691 10.4563 19.6559 10.4563H35.6526C36.5394 10.4563 37.2531 11.1742 37.2531 12.0568V38.4588Z" stroke="#3D521E" stroke-width="1.6" stroke-miterlimit="10" stroke-linecap="round" stroke-linejoin="round"/>
<path d="M21.2522 13.6572H34.0521V34.4554H21.2522V13.6572Z" stroke="#3D521E" stroke-width="1.6" stroke-miterlimit="10" stroke-linecap="round" stroke-linejoin="round"/>
<path d="M28.8535 37.2595C28.8535 37.9182 28.3172 38.4588 27.6542 38.4588C26.9912 38.4588 26.4548 37.9182 26.4548 37.2595C26.4548 36.5964 26.9912 36.0559 27.6542 36.0559C28.3172 36.0559 28.8535 36.5964 28.8535 37.2595Z" fill="#3D521E"/>
<path d="M16.4549 31.2586H5.25554C4.36871 31.2586 3.65503 30.5407 3.65503 29.6581V3.25602C3.65503 2.37342 4.36871 1.65552 5.25554 1.65552H21.2522C22.139 1.65552 22.8527 2.37342 22.8527 3.25602V8.85569" stroke="#3D521E" stroke-width="1.6" stroke-miterlimit="10" stroke-linejoin="round"/>
<path d="M16.4548 25.6588H6.85596V4.85645H19.6558V8.8556" stroke="#3D521E" stroke-width="1.6" stroke-miterlimit="10" stroke-linejoin="round"/>
<path d="M14.4531 28.4588C14.4531 29.1219 13.9168 29.6582 13.2538 29.6582C12.5908 29.6582 12.0544 29.1219 12.0544 28.4588C12.0544 27.7958 12.5908 27.2595 13.2538 27.2595C13.9168 27.2595 14.4531 27.7958 14.4531 28.4588Z" fill="#3D521E"/>
</g>
<defs>
<clipPath id="clip0_2012_2686">
<rect width="40.0001" height="40" fill="white" transform="translate(0.454102 0.857422)"/>
</clipPath>
</defs>
</svg>
