<svg width="41" height="41" viewBox="0 0 41 41" fill="none" xmlns="http://www.w3.org/2000/svg">
<path d="M36.9115 6.45703H4.66481C3.84977 6.45703 3.18677 7.13693 3.18677 7.97308V35.2577H38.3895V7.97308C38.3895 7.13693 37.7265 6.45703 36.9115 6.45703Z" stroke="#3D521E" stroke-width="1.6" stroke-miterlimit="10" stroke-linejoin="round"/>
<path d="M13.588 11.2585C13.588 12.1411 12.8701 12.859 11.9875 12.859C11.1049 12.859 10.387 12.1411 10.387 11.2585C10.387 10.3716 11.1049 9.65796 11.9875 9.65796C12.8701 9.65796 13.588 10.3716 13.588 11.2585Z" fill="#3D521E"/>
<path d="M8.7864 11.2585C8.7864 12.1411 8.07271 12.859 7.19011 12.859C6.30328 12.859 5.5896 12.1411 5.5896 11.2585C5.5896 10.3716 6.30328 9.65796 7.19011 9.65796C8.07271 9.65796 8.7864 10.3716 8.7864 11.2585Z" fill="#3D521E"/>
<path d="M3.18677 16.0559H38.3895" stroke="#3D521E" stroke-width="1.6" stroke-miterlimit="10" stroke-linejoin="round"/>
<path d="M27.1902 20.0593H34.3861V31.2586H27.1902V20.0593Z" stroke="#3D521E" stroke-width="1.6" stroke-miterlimit="10"/>
<path d="M7.19019 20.0593H23.1868V24.0585H7.19019V20.0593Z" stroke="#3D521E" stroke-width="1.6" stroke-miterlimit="10"/>
<path d="M7.19019 27.2593H23.1868V31.2584H7.19019V27.2593Z" stroke="#3D521E" stroke-width="1.6" stroke-miterlimit="10"/>
<path d="M16.7891 9.65796H34.3862V12.859H16.7891V9.65796Z" stroke="#3D521E" stroke-width="1.6" stroke-miterlimit="10"/>
</svg>
