<svg width="222" height="30" viewBox="0 0 222 30" fill="none" xmlns="http://www.w3.org/2000/svg">
<path d="M219.076 26.5917L220.05 25.5467L218.624 25.6239C218.057 25.6545 217.508 25.7005 216.968 25.7459C216.086 25.8198 215.228 25.8918 214.354 25.8918C211.066 25.8918 208.902 24.798 207.384 23.1328C205.842 21.4415 204.921 19.1124 204.237 16.5659L204.236 16.5616C203.555 14.1041 203.22 11.7761 203.22 9.95771V9.95023L203.22 9.94275C203.182 8.50249 203.375 7.52321 203.712 6.92351C204.021 6.37364 204.461 6.11817 205.101 6.11817C207.753 6.11817 209.611 6.53272 210.965 7.23428C212.307 7.92958 213.201 8.93042 213.887 10.1941L214.298 10.9513L219.264 4.82499L218.923 4.45867C216.71 2.08247 213.581 1.08838 210.246 1.08838C206.913 1.08838 203.835 2.04262 201.594 4.39113C199.356 6.7363 198.036 10.3849 198.036 15.6018C198.036 20.8 199.356 24.4212 201.596 26.7428C203.838 29.0669 206.917 30.0001 210.246 30.0001C213.656 30.0001 216.824 29.0072 219.076 26.5917Z" fill="#D2CDBC"/>
<path fill-rule="evenodd" clip-rule="evenodd" d="M168.041 19.3263C168.044 19.9022 168.045 19.9022 168.045 19.9022L168.048 19.9022L168.055 19.9021C168.06 19.902 168.068 19.9019 168.077 19.9017L168.098 19.9011L168.126 19.9001L168.154 19.899C168.219 19.8961 168.311 19.8906 168.426 19.8803C168.656 19.8596 168.98 19.8193 169.367 19.7407C170.14 19.584 171.175 19.2723 172.215 18.6493C174.332 17.3814 176.373 14.8781 176.373 10.073L176.373 10.0702C176.363 8.0039 175.89 6.41603 175.158 5.20275C174.426 3.99034 173.454 3.18325 172.491 2.64872C171.532 2.11603 170.58 1.85228 169.871 1.72087C169.515 1.65494 169.218 1.62169 169.006 1.60489C168.901 1.59648 168.816 1.59217 168.756 1.58996C168.741 1.58937 168.727 1.58893 168.714 1.5886C168.703 1.58831 168.694 1.58811 168.686 1.58797L168.666 1.58768L168.659 1.58764L168.657 1.58763C168.657 1.58763 168.655 1.58763 168.655 2.16356L168.655 1.58763H155.27L156.085 2.53837C156.69 3.24458 157.017 4.14013 157.188 4.93025C157.359 5.71494 157.367 6.35157 157.367 6.50224V24.5865C157.367 24.7371 157.359 25.3738 157.188 26.1584C157.017 26.9486 156.69 27.8441 156.085 28.5503L155.27 29.5011H165.665L164.968 28.5781C164.328 27.7305 163.998 26.7274 163.83 25.9145C163.746 25.5115 163.705 25.164 163.684 24.919C163.674 24.7968 163.669 24.7007 163.666 24.6368L163.666 24.6202L163.665 24.6069C163.665 24.5895 163.664 24.5758 163.664 24.5659L163.664 24.55L163.664 24.5481L163.665 24.6069C163.651 24.4058 163.664 24.5481 163.664 24.5481V19.9022L168.041 19.9022L168.045 19.9022L168.041 19.3263ZM165.781 5.35046L165.776 5.35038H163.664V17.1171C165.223 17.039 166.784 16.7616 167.999 15.9123C169.321 14.9873 170.345 13.2993 170.345 10.073C170.345 8.84574 170.048 7.96377 169.633 7.32275C169.217 6.67894 168.658 6.24412 168.085 5.9488C167.508 5.65214 166.926 5.50098 166.482 5.42487C166.262 5.38704 166.079 5.36836 165.955 5.35917C165.892 5.35459 165.844 5.35239 165.814 5.35133C165.798 5.35081 165.787 5.35057 165.781 5.35046Z" fill="#D2CDBC"/>
<path fill-rule="evenodd" clip-rule="evenodd" d="M200.314 29.501H188.342L189.194 28.5424C190.007 27.6284 190.244 26.7418 190.026 25.7613C189.707 24.5846 189.305 23.4788 188.98 22.664C188.817 22.256 188.674 21.9227 188.573 21.6922L188.562 21.6683H181.045L180.503 23.7078L180.5 23.718C180.069 25.1281 179.796 26.0732 179.796 26.8517C179.796 27.4401 179.975 27.9773 180.416 28.5878L181.076 29.501H171.848L172.775 28.5279C174.265 26.9634 175.139 25.7625 176.028 23.357L181.749 6.57684L181.752 6.56871C182.321 5.05115 182.522 4.16969 182.522 3.39214C182.522 2.8784 182.455 2.43714 182.279 1.87453L182.046 1.12681H187.494L194.462 20.2305C194.67 20.7318 194.873 21.2461 195.078 21.7648C195.492 22.8132 195.913 23.8806 196.398 24.8947C197.122 26.4094 197.938 27.6887 198.959 28.4671L200.314 29.501ZM182.308 17.9488L187.173 17.9774L184.683 11.4819L182.308 17.9488Z" fill="#D2CDBC"/>
<path fill-rule="evenodd" clip-rule="evenodd" d="M156.002 29.501H144.03L144.882 28.5424C145.694 27.6284 145.931 26.7418 145.713 25.7613C145.395 24.5846 144.992 23.4788 144.667 22.664C144.504 22.256 144.362 21.9227 144.26 21.6922L144.25 21.6683H136.732L136.19 23.7078L136.187 23.718C135.756 25.1281 135.483 26.0732 135.483 26.8517C135.483 27.4401 135.663 27.9773 136.103 28.5878L136.763 29.501H127.535L128.462 28.5279C129.952 26.9634 130.826 25.7625 131.715 23.357L137.436 6.57684L137.439 6.56871C138.009 5.05115 138.209 4.16969 138.209 3.39214C138.209 2.8784 138.142 2.43714 137.967 1.87453L137.733 1.12681H143.181L150.149 20.2305C150.357 20.7317 150.56 21.2459 150.765 21.7646L150.766 21.7657C151.179 22.8139 151.601 23.8807 152.085 24.8947C152.81 26.4094 153.625 27.6887 154.646 28.4671L156.002 29.501ZM137.996 17.9488L142.86 17.9774L140.371 11.4819L137.996 17.9488Z" fill="#D2CDBC"/>
<path d="M220.164 25.5033L221.138 24.4584L219.712 24.5355C219.145 24.5661 218.596 24.6122 218.056 24.6575C217.174 24.7314 216.316 24.8034 215.442 24.8034C212.154 24.8034 209.99 23.7096 208.472 22.0445C206.93 20.3532 206.009 18.024 205.325 15.4775L205.324 15.4732C204.643 13.0157 204.308 10.6877 204.308 8.86933V8.86185L204.308 8.85437C204.27 7.41411 204.463 6.43483 204.8 5.83513C205.109 5.28526 205.549 5.02979 206.189 5.02979C208.841 5.02979 210.699 5.44434 212.053 6.14591C213.395 6.8412 214.289 7.84204 214.975 9.1057L215.386 9.86288L220.352 3.73661L220.011 3.3703C217.798 0.994091 214.669 0 211.334 0C208.001 0 204.923 0.954239 202.682 3.30275C200.444 5.64792 199.124 9.29651 199.124 14.5134C199.124 19.7116 200.444 23.3328 202.684 25.6544C204.926 27.9785 208.005 28.9117 211.334 28.9117C214.744 28.9117 217.912 27.9189 220.164 25.5033Z" fill="url(#paint0_linear_2418_11904)"/>
<path fill-rule="evenodd" clip-rule="evenodd" d="M169.129 18.2379C169.132 18.8138 169.133 18.8138 169.133 18.8138L169.136 18.8138L169.143 18.8137C169.148 18.8136 169.156 18.8135 169.165 18.8133L169.186 18.8127L169.214 18.8118L169.242 18.8106C169.306 18.8077 169.398 18.8022 169.514 18.7919C169.744 18.7712 170.068 18.7309 170.455 18.6523C171.228 18.4956 172.263 18.1839 173.303 17.5609C175.42 16.293 177.461 13.7897 177.461 8.98463L177.461 8.98183C177.451 6.91552 176.978 5.32765 176.246 4.11438C175.514 2.90196 174.542 2.09487 173.579 1.56035C172.62 1.02765 171.667 0.7639 170.959 0.632489C170.603 0.566565 170.305 0.533314 170.094 0.516512C169.988 0.508103 169.904 0.503791 169.844 0.501579C169.829 0.500991 169.814 0.500551 169.802 0.500223C169.791 0.499933 169.782 0.499729 169.774 0.499586L169.753 0.499305L169.747 0.499261L169.745 0.499254C169.745 0.499254 169.743 0.499252 169.743 1.07518L169.743 0.499252H156.358L157.173 1.44999C157.778 2.1562 158.105 3.05175 158.276 3.84188C158.447 4.62656 158.455 5.26319 158.455 5.41386V23.4981C158.455 23.6487 158.447 24.2854 158.276 25.0701C158.105 25.8602 157.778 26.7557 157.173 27.4619L156.358 28.4127H166.753L166.056 27.4897C165.416 26.6422 165.086 25.639 164.917 24.8261C164.834 24.4231 164.793 24.0756 164.772 23.8307C164.762 23.7084 164.757 23.6123 164.754 23.5484L164.754 23.5319L164.753 23.5185C164.753 23.5012 164.752 23.4874 164.752 23.4775L164.752 23.4617L164.752 23.4597L164.753 23.5185C164.739 23.3174 164.752 23.4597 164.752 23.4597V18.8138L169.129 18.8138L169.133 18.8138L169.129 18.2379ZM166.869 4.26208L166.864 4.262H164.752V16.0287C166.311 15.9507 167.872 15.6732 169.087 14.8239C170.409 13.899 171.433 12.211 171.433 8.98463C171.433 7.75736 171.136 6.87539 170.721 6.23437C170.304 5.59056 169.746 5.15574 169.172 4.86042C168.596 4.56377 168.013 4.4126 167.57 4.33649C167.35 4.29866 167.167 4.27998 167.042 4.27079C166.98 4.26621 166.932 4.26401 166.902 4.26295C166.886 4.26243 166.875 4.26219 166.869 4.26208Z" fill="url(#paint1_linear_2418_11904)"/>
<path fill-rule="evenodd" clip-rule="evenodd" d="M201.402 28.4126H189.43L190.282 27.454C191.095 26.5401 191.332 25.6534 191.113 24.6729C190.795 23.4963 190.392 22.3904 190.067 21.5756C189.905 21.1676 189.762 20.8343 189.661 20.6038L189.65 20.5799H182.133L181.591 22.6195L181.588 22.6296C181.157 24.0398 180.884 24.9848 180.884 25.7633C180.884 26.3518 181.063 26.8889 181.504 27.4995L182.164 28.4126H172.936L173.863 27.4395C175.352 25.875 176.227 24.6741 177.116 22.2687L182.837 5.48846L182.84 5.48033C183.409 3.96277 183.61 3.08131 183.61 2.30376C183.61 1.79003 183.543 1.34876 183.367 0.786149L183.133 0.0384329H188.582L195.55 19.1421C195.758 19.6434 195.961 20.1577 196.166 20.6765C196.58 21.7248 197.001 22.7923 197.486 23.8063C198.21 25.321 199.026 26.6003 200.047 27.3787L201.402 28.4126ZM183.396 16.8604L188.261 16.889L185.771 10.3935L183.396 16.8604Z" fill="url(#paint2_linear_2418_11904)"/>
<path fill-rule="evenodd" clip-rule="evenodd" d="M157.089 28.4126H145.118L145.97 27.454C146.782 26.5401 147.019 25.6534 146.801 24.6729C146.483 23.4963 146.08 22.3904 145.755 21.5756C145.592 21.1676 145.45 20.8343 145.348 20.6038L145.338 20.5799H137.82L137.278 22.6195L137.275 22.6296C136.844 24.0398 136.571 24.9848 136.571 25.7633C136.571 26.3518 136.75 26.8889 137.191 27.4995L137.851 28.4126H128.623L129.55 27.4395C131.04 25.875 131.914 24.6741 132.803 22.2687L138.524 5.48846L138.527 5.48033C139.096 3.96277 139.297 3.08131 139.297 2.30376C139.297 1.79003 139.23 1.34876 139.054 0.786149L138.821 0.0384329H144.269L151.237 19.1421C151.445 19.6433 151.648 20.1575 151.853 20.6762L151.854 20.6773C152.267 21.7256 152.689 22.7924 153.173 23.8063C153.898 25.321 154.713 26.6003 155.734 27.3787L157.089 28.4126ZM139.084 16.8604L143.948 16.889L141.459 10.3935L139.084 16.8604Z" fill="url(#paint3_linear_2418_11904)"/>
<path fill-rule="evenodd" clip-rule="evenodd" d="M12.9068 19.2081C12.9097 19.7901 12.9104 19.7901 12.9104 19.7901L12.9114 19.7901L12.9138 19.7901L12.9208 19.79C12.9265 19.7899 12.934 19.7898 12.9433 19.7896C12.962 19.7891 12.9879 19.7883 13.0207 19.7869C13.0863 19.7839 13.1792 19.7784 13.2957 19.768C13.5283 19.7471 13.856 19.7064 14.2473 19.6269C15.0278 19.4685 16.0741 19.1535 17.1251 18.5239C19.2644 17.2424 21.3273 14.7125 21.3273 9.85622L21.3273 9.8534C21.3171 7.76507 20.8395 6.16029 20.0994 4.93409C19.3599 3.70875 18.3773 2.89306 17.4044 2.35285C16.4349 1.81448 15.4723 1.54792 14.7561 1.41511C14.3967 1.34848 14.0959 1.31487 13.8823 1.29789C13.7754 1.2894 13.6901 1.28504 13.6299 1.2828C13.5997 1.28168 13.5759 1.2811 13.5587 1.28079L13.538 1.2805L13.5315 1.28046L13.5292 1.28045L13.5284 1.28045C13.5284 1.28045 13.5276 1.28045 13.5277 1.86252L13.5276 1.28045H1.01768e-06L0.823597 2.24132C1.43536 2.95505 1.76506 3.86014 1.93846 4.65868C2.11066 5.45173 2.11922 6.09514 2.11922 6.24741V24.5243C2.11922 24.6766 2.11066 25.32 1.93846 26.113C1.76506 26.9116 1.43536 27.8167 0.823597 28.5304L0 29.4912H10.5057L9.80131 28.5584C9.15452 27.7019 8.82033 26.688 8.65053 25.8665C8.56633 25.4592 8.52435 25.1079 8.50348 24.8604C8.49307 24.7369 8.48797 24.6398 8.48548 24.5751C8.48423 24.5428 8.48364 24.5187 8.48336 24.5035L8.48313 24.4875L8.48311 24.4855V19.7901L12.9068 19.7902L12.9097 19.7901L12.9068 19.2081ZM2.70129 6.24741C2.70129 5.89817 2.66249 3.4923 1.26554 1.86252C1.42443 2.04789 1.56574 2.2433 1.69143 2.44458C2.67081 4.01298 2.70129 5.9379 2.70129 6.24741ZM10.6164 5.08328L10.6168 5.08328L10.6226 5.08336C10.6291 5.08347 10.6403 5.08371 10.6558 5.08425C10.6868 5.08531 10.735 5.08753 10.7981 5.09217C10.9243 5.10146 11.1086 5.12033 11.3313 5.15856C11.7795 5.23549 12.3685 5.38826 12.9507 5.68808C13.5304 5.98654 14.0948 6.426 14.516 7.07666C14.9354 7.72451 15.235 8.61588 15.235 9.85622C15.235 13.1169 14.2008 14.8229 12.8642 15.7577C11.6369 16.6161 10.0588 16.8965 8.48311 16.9754V5.08328L10.6164 5.08328Z" fill="#D2CDBC"/>
<path d="M118.758 1.28045H110.717L111.24 2.16023C111.707 2.94445 112.02 3.62047 112.22 4.39067C112.421 5.16515 112.516 6.06236 112.516 7.29513V18.6687L100.442 1.28045H93.8188L94.3164 2.1513C94.7677 2.94103 95.0819 3.6203 95.2876 4.39371C95.4938 5.16927 95.5978 6.06647 95.5978 7.29513V23.4766C95.5978 24.7052 95.4938 25.6024 95.2876 26.378C95.0819 27.1514 94.7677 27.8307 94.3164 28.6204L93.8188 29.4912H101.801L101.303 28.6204C100.849 27.8268 100.526 27.1462 100.311 26.3719C100.096 25.5971 99.9827 24.7015 99.9827 23.4766V12.2807L110.52 26.9063C111.876 29.0558 113.894 30.0795 116.416 29.9954L116.979 29.9766V7.06231C116.979 4.91903 117.376 3.69858 118.26 2.1513L118.758 1.28045Z" fill="#D2CDBC"/>
<path fill-rule="evenodd" clip-rule="evenodd" d="M88.3954 4.17289C90.6642 6.56034 92.0091 10.2455 92.0091 15.4439C92.0091 20.6986 90.6651 24.3585 88.3914 26.7046C86.1159 29.0525 82.9954 29.9956 79.6305 29.9956C76.2656 29.9956 73.1542 29.0524 70.8882 26.7036C68.6245 24.3573 67.2908 20.6975 67.2908 15.4439C67.2908 10.1714 68.6243 6.48397 70.886 4.11381C73.1509 1.74028 76.2624 0.775879 79.6305 0.775879C83.0045 0.775879 86.1236 1.78241 88.3954 4.17289ZM83.7826 25.8435C84.789 25.8435 85.3795 25.4715 85.7514 24.8897C86.1525 24.2622 86.3437 23.3188 86.3437 22.1183C86.3437 21.8501 86.3455 21.567 86.3475 21.2729V21.2683C86.3605 19.2926 86.3767 16.8181 85.8609 14.9804L85.8595 14.9754L85.8582 14.9705C85.101 12.0775 84.3068 9.83982 82.7136 8.30053C81.1437 6.78363 78.6997 5.85925 74.4308 5.85925C73.7833 5.85925 73.3384 6.11808 73.0263 6.66974C72.6862 7.27081 72.4914 8.25043 72.5292 9.68558L72.5294 9.69323V9.70089C72.5294 11.5769 72.868 13.8913 73.5566 16.4161L73.5572 16.4182C74.2486 18.9919 75.1796 21.3459 76.7381 23.0552C78.2725 24.7381 80.4589 25.8435 83.7826 25.8435Z" fill="#D2CDBC"/>
<path d="M66.909 26.5508L67.8934 25.4948L66.4518 25.5727C65.8792 25.6037 65.3244 25.6502 64.7782 25.696C63.8876 25.7707 63.0201 25.8435 62.1371 25.8435C58.8135 25.8435 56.627 24.7381 55.0926 23.0552C53.5341 21.3459 52.6032 18.9919 51.9117 16.4182L51.9105 16.4139C51.2228 13.9302 50.8839 11.5775 50.8839 9.73969V9.73213L50.8837 9.72458C50.8459 8.26897 51.041 7.27926 51.3816 6.67317C51.694 6.11744 52.1385 5.85925 52.7853 5.85925C55.4655 5.85925 57.343 6.27822 58.7117 6.98726C60.0682 7.68996 60.9711 8.70147 61.6644 9.97859L62.0798 10.7438L67.0987 4.55229L66.754 4.18208C64.5181 1.78056 61.3555 0.775879 57.9851 0.775879C54.6169 0.775879 51.5054 1.74028 49.2405 4.11381C46.9788 6.48397 45.6454 10.1714 45.6454 15.4439C45.6454 20.6975 46.9791 24.3573 49.2427 26.7036C51.5087 29.0524 54.6201 29.9956 57.9851 29.9956C61.4309 29.9956 64.6332 28.9922 66.909 26.5508Z" fill="#D2CDBC"/>
<path d="M38.1573 1.31929H48.0068L46.8927 2.33205C45.2236 3.84946 43.981 5.31897 42.8103 7.28279L42.8078 7.28708C42.2123 8.26669 40.8595 10.6435 39.6498 12.786C39.0463 13.8549 38.4802 14.8621 38.0651 15.6022C37.8575 15.9722 37.6877 16.2753 37.5697 16.486L37.4598 16.6823V23.205C37.4598 24.6025 37.5467 25.5546 37.7517 26.348C37.9542 27.1313 38.2797 27.7906 38.8013 28.5916L39.3871 29.4913H28.746L29.7089 28.503C30.3699 27.8246 30.6947 27.1866 30.8658 26.3695C31.0449 25.514 31.0571 24.464 31.0571 22.9333V17.1156L30.2635 15.7629C29.7341 14.8607 29.0199 13.6432 28.2802 12.382C26.8032 9.86385 25.2239 7.17032 24.8132 6.46623C24.0251 5.15356 22.8189 3.6082 21.4279 2.32995L20.3281 1.31929H32.0641L31.4163 2.23703C30.9591 2.88459 30.7669 3.28305 30.7294 3.66564C30.6924 4.04214 30.7969 4.50145 31.186 5.28126C31.4398 5.75442 31.771 6.38924 32.1611 7.13697C32.982 8.71059 34.0639 10.7844 35.2345 12.9041L35.3282 12.7267C35.6903 12.042 36.1816 11.114 36.6984 10.141C37.7256 8.20726 38.8608 6.08216 39.2772 5.34753C39.6252 4.68366 39.7253 4.16575 39.671 3.71746C39.6163 3.26482 39.3948 2.8043 38.9529 2.27399L38.1573 1.31929Z" fill="#D2CDBC"/>
<path fill-rule="evenodd" clip-rule="evenodd" d="M13.6841 18.4322C13.687 19.0143 13.6878 19.0143 13.6878 19.0143L13.6887 19.0142L13.6912 19.0142L13.6982 19.0141C13.7038 19.0141 13.7113 19.0139 13.7206 19.0137C13.7393 19.0133 13.7653 19.0124 13.7981 19.011C13.8636 19.0081 13.9566 19.0025 14.073 18.9921C14.3057 18.9712 14.6334 18.9305 15.0247 18.8511C15.8051 18.6926 16.8514 18.3776 17.9024 17.748C20.0417 16.4666 22.1046 13.9366 22.1046 9.08034L22.1046 9.07752C22.0945 6.98919 21.6169 5.38441 20.8768 4.15821C20.1372 2.93287 19.1547 2.11718 18.1818 1.57697C17.2122 1.0386 16.2497 0.772038 15.5334 0.639227C15.1741 0.5726 14.8732 0.538995 14.6597 0.522015C14.5528 0.513516 14.4674 0.509158 14.4072 0.506923C14.3771 0.505805 14.3532 0.505217 14.336 0.504909L14.3153 0.504624L14.3088 0.50458L14.3066 0.504573L14.3057 0.504571C14.3057 0.504571 14.305 0.504571 14.305 1.08664L14.305 0.504571H0.777345L1.60094 1.46544C2.2127 2.17917 2.54241 3.08426 2.7158 3.8828C2.88801 4.67585 2.89657 5.31926 2.89657 5.47153V23.7484C2.89657 23.9007 2.88801 24.5441 2.7158 25.3371C2.54241 26.1357 2.2127 27.0408 1.60094 27.7545L0.777344 28.7154H11.283L10.5787 27.7825C9.93186 26.926 9.59768 25.9121 9.42787 25.0906C9.34368 24.6833 9.30169 24.3321 9.28083 24.0845C9.27041 23.961 9.26531 23.8639 9.26282 23.7992C9.26158 23.767 9.26098 23.7428 9.2607 23.7276L9.26047 23.7116L9.26045 23.7096V19.0143L13.6841 19.0143L13.687 19.0143L13.6841 18.4322ZM3.47864 5.47153C3.47864 5.12229 3.43983 2.71642 2.04288 1.08664C2.20177 1.27201 2.34308 1.46742 2.46877 1.6687C3.44815 3.2371 3.47864 5.16202 3.47864 5.47153ZM11.3937 4.3074L11.3942 4.3074L11.3999 4.30748C11.4064 4.30759 11.4176 4.30784 11.4331 4.30837C11.4641 4.30943 11.5124 4.31166 11.5754 4.31629C11.7017 4.32558 11.8859 4.34445 12.1087 4.38268C12.5568 4.45961 13.1458 4.61238 13.7281 4.9122C14.3077 5.21066 14.8722 5.65012 15.2934 6.30079C15.7127 6.94864 16.0124 7.84 16.0124 9.08034C16.0124 12.3411 14.9782 14.047 13.6416 14.9818C12.4142 15.8402 10.8361 16.1206 9.26045 16.1995V4.3074L11.3937 4.3074Z" fill="url(#paint4_linear_2418_11904)"/>
<path d="M119.535 0.504571H111.494L112.018 1.38435C112.484 2.16857 112.797 2.84459 112.997 3.61479C113.199 4.38927 113.294 5.28648 113.294 6.51925V17.8928L101.22 0.504571H94.5961L95.0937 1.37542C95.545 2.16515 95.8593 2.84442 96.0649 3.61783C96.2711 4.39339 96.3752 5.29059 96.3752 6.51925V22.7007C96.3752 23.9293 96.2711 24.8265 96.0649 25.6021C95.8593 26.3755 95.545 27.0548 95.0937 27.8445L94.5961 28.7154H102.578L102.08 27.8445C101.627 27.0509 101.303 26.3703 101.088 25.5961C100.873 24.8212 100.76 23.9256 100.76 22.7007V11.5048L111.297 26.1304C112.653 28.28 114.672 29.3036 117.194 29.2195L117.756 29.2007V6.28643C117.756 4.14315 118.154 2.9227 119.038 1.37542L119.535 0.504571Z" fill="url(#paint5_linear_2418_11904)"/>
<path fill-rule="evenodd" clip-rule="evenodd" d="M89.1727 3.39701C91.4416 5.78446 92.7864 9.46966 92.7864 14.6681C92.7864 19.9227 91.4424 23.5827 89.1688 25.9287C86.8932 28.2767 83.7727 29.2197 80.4079 29.2197C77.0429 29.2197 73.9315 28.2765 71.6655 25.9277C69.4019 23.5814 68.0682 19.9216 68.0682 14.6681C68.0682 9.39555 69.4016 5.70809 71.6633 3.33794C73.9282 0.964405 77.0397 0 80.4079 0C83.7819 0 86.901 1.00653 89.1727 3.39701ZM84.5599 25.0676C85.5663 25.0676 86.1568 24.6956 86.5287 24.1139C86.9299 23.4863 87.121 22.5429 87.121 21.3424C87.121 21.0742 87.1229 20.7911 87.1248 20.497V20.4924C87.1378 18.5168 87.1541 16.0422 86.6382 14.2045L86.6368 14.1995L86.6355 14.1946C85.8783 11.3016 85.0841 9.06394 83.491 7.52465C81.921 6.00775 79.477 5.08338 75.2081 5.08338C74.5607 5.08338 74.1158 5.3422 73.8036 5.89386C73.4636 6.49493 73.2688 7.47455 73.3065 8.9097L73.3067 8.91735V8.92501C73.3067 10.801 73.6453 13.1154 74.3339 15.6402L74.3345 15.6424C75.0259 18.2161 75.9569 20.57 77.5154 22.2793C79.0498 23.9622 81.2363 25.0676 84.5599 25.0676Z" fill="url(#paint6_linear_2418_11904)"/>
<path d="M67.6863 25.775L68.6708 24.7189L67.2291 24.7969C66.6566 24.8278 66.1017 24.8743 65.5556 24.9202C64.6649 24.9949 63.7974 25.0676 62.9145 25.0676C59.5908 25.0676 57.4044 23.9622 55.87 22.2793C54.3115 20.57 53.3805 18.2161 52.6891 15.6424L52.6879 15.638C52.0001 13.1544 51.6613 10.8016 51.6613 8.96381V8.95626L51.6611 8.9487C51.6233 7.49309 51.8183 6.50339 52.159 5.89729C52.4714 5.34156 52.9158 5.08338 53.5627 5.08338C56.2429 5.08338 58.1204 5.50234 59.4891 6.21138C60.8456 6.91408 61.7485 7.92559 62.4417 9.20271L62.8572 9.96795L67.876 3.77641L67.5313 3.4062C65.2955 1.00468 62.1329 0 58.7624 0C55.3943 0 52.2828 0.964405 50.0179 3.33794C47.7561 5.70809 46.4227 9.39555 46.4227 14.6681C46.4227 19.9216 47.7564 23.5814 50.0201 25.9277C52.2861 28.2765 55.3975 29.2197 58.7624 29.2197C62.2083 29.2197 65.4105 28.2163 67.6863 25.775Z" fill="url(#paint7_linear_2418_11904)"/>
<path d="M38.9346 0.543413H48.7841L47.6701 1.55617C46.0009 3.07358 44.7584 4.54309 43.5877 6.50691L43.5851 6.5112C42.9896 7.49081 41.6368 9.86765 40.4271 12.0101C39.8236 13.0791 39.2576 14.0863 38.8424 14.8263C38.6348 15.1963 38.465 15.4994 38.3471 15.7101L38.2372 15.9065V22.4291C38.2372 23.8266 38.324 24.7787 38.5291 25.5721C38.7315 26.3554 39.0571 27.0148 39.5786 27.8157L40.1645 28.7154H29.5234L30.4863 27.7271C31.1473 27.0488 31.472 26.4107 31.6431 25.5936C31.8223 24.7381 31.8345 23.6881 31.8345 22.1575V16.3397L31.0408 14.987C30.5115 14.0848 29.7972 12.8673 29.0575 11.6061C27.5805 9.08798 26.0012 6.39444 25.5905 5.69035C24.8025 4.37768 23.5963 2.83232 22.2053 1.55407L21.1054 0.543413H32.8414L32.1936 1.46115C31.7365 2.10871 31.5443 2.50717 31.5067 2.88976C31.4697 3.26626 31.5742 3.72557 31.9634 4.50538C32.2171 4.97854 32.5483 5.61336 32.9384 6.36109C33.7594 7.93471 34.8413 10.0086 36.0118 12.1282L36.1056 11.9508C36.4676 11.2661 36.9589 10.3381 37.4757 9.36514C38.5029 7.43138 39.6381 5.30628 40.0545 4.57165C40.4025 3.90778 40.5026 3.38987 40.4484 2.94158C40.3936 2.48895 40.1721 2.02842 39.7302 1.49811L38.9346 0.543413Z" fill="url(#paint8_linear_2418_11904)"/>
<defs>
<linearGradient id="paint0_linear_2418_11904" x1="159.004" y1="0.167579" x2="159.004" y2="28.5208" gradientUnits="userSpaceOnUse">
<stop stop-color="#2D7353"/>
<stop offset="1" stop-color="#235940"/>
</linearGradient>
<linearGradient id="paint1_linear_2418_11904" x1="159.004" y1="0.167579" x2="159.004" y2="28.5208" gradientUnits="userSpaceOnUse">
<stop stop-color="#2D7353"/>
<stop offset="1" stop-color="#235940"/>
</linearGradient>
<linearGradient id="paint2_linear_2418_11904" x1="159.004" y1="0.167579" x2="159.004" y2="28.5208" gradientUnits="userSpaceOnUse">
<stop stop-color="#2D7353"/>
<stop offset="1" stop-color="#235940"/>
</linearGradient>
<linearGradient id="paint3_linear_2418_11904" x1="159.004" y1="0.167579" x2="159.004" y2="28.5208" gradientUnits="userSpaceOnUse">
<stop stop-color="#2D7353"/>
<stop offset="1" stop-color="#235940"/>
</linearGradient>
<linearGradient id="paint4_linear_2418_11904" x1="60.1564" y1="0" x2="60.1564" y2="29.2243" gradientUnits="userSpaceOnUse">
<stop stop-color="#FFBB01"/>
<stop offset="1" stop-color="#FFA401"/>
</linearGradient>
<linearGradient id="paint5_linear_2418_11904" x1="60.1564" y1="0" x2="60.1564" y2="29.2243" gradientUnits="userSpaceOnUse">
<stop stop-color="#FFBB01"/>
<stop offset="1" stop-color="#FFA401"/>
</linearGradient>
<linearGradient id="paint6_linear_2418_11904" x1="60.1564" y1="0" x2="60.1564" y2="29.2243" gradientUnits="userSpaceOnUse">
<stop stop-color="#FFBB01"/>
<stop offset="1" stop-color="#FFA401"/>
</linearGradient>
<linearGradient id="paint7_linear_2418_11904" x1="60.1564" y1="0" x2="60.1564" y2="29.2243" gradientUnits="userSpaceOnUse">
<stop stop-color="#FFBB01"/>
<stop offset="1" stop-color="#FFA401"/>
</linearGradient>
<linearGradient id="paint8_linear_2418_11904" x1="60.1564" y1="0" x2="60.1564" y2="29.2243" gradientUnits="userSpaceOnUse">
<stop stop-color="#FFBB01"/>
<stop offset="1" stop-color="#FFA401"/>
</linearGradient>
</defs>
</svg>
