<svg width="1440" height="23" viewBox="0 0 1440 23" fill="none" xmlns="http://www.w3.org/2000/svg">
<path d="M1450 20.6528L1450 13.2729L-9.88281 13.273C-9.25818 17.4702 -6.24927 20.6529 -2.63184 20.6529C-2.6217 20.6529 -2.61157 20.6528 -2.60156 20.6528L1450 20.6528Z" fill="#BA7837"/>
<path d="M1450 13.273L1450 2.65283L-2.63086 2.65285C-6.70122 2.65285 -10.0011 6.68215 -10.0011 11.6529C-10.0011 12.2061 -9.96001 12.7476 -9.88183 13.273L1450 13.273Z" fill="#D9934E"/>
<path fill-rule="evenodd" clip-rule="evenodd" d="M214.767 3.3386C214.204 2.67881 214.282 1.69009 214.939 1.12707C215.596 0.565523 216.587 0.641224 217.149 1.30049L217.495 1.71684C219.506 4.30857 220.754 8.20607 220.84 11.9939C220.928 15.894 219.798 19.7472 217.04 22.1135L216.711 22.3906C216.025 22.9229 215.038 22.798 214.505 22.1128C213.973 21.4277 214.097 20.4395 214.782 19.9072L215.004 19.7306C216.974 18.039 217.776 15.1033 217.706 12.0625C217.635 8.91294 216.634 5.71714 215.018 3.64143L214.767 3.3386Z" fill="#96612D"/>
<path fill-rule="evenodd" clip-rule="evenodd" d="M719.066 3.3386C718.503 2.67881 718.581 1.69009 719.238 1.12707C719.895 0.565523 720.886 0.641224 721.448 1.30049L721.794 1.71684C723.805 4.30857 725.053 8.20607 725.139 11.9939C725.227 15.894 724.097 19.7472 721.339 22.1135L721.009 22.3906C720.324 22.9229 719.337 22.798 718.804 22.1128C718.272 21.4277 718.395 20.4395 719.081 19.9072L719.303 19.7306C721.272 18.039 722.075 15.1033 722.005 12.0625C721.934 8.91294 720.933 5.71714 719.317 3.64143L719.066 3.3386Z" fill="#96612D"/>
<path fill-rule="evenodd" clip-rule="evenodd" d="M1111.3 3.3386C1110.74 2.67881 1110.82 1.69009 1111.47 1.12707C1112.13 0.565523 1113.12 0.641224 1113.68 1.30049L1114.03 1.71684C1116.04 4.30857 1117.29 8.20607 1117.37 11.9939C1117.46 15.894 1116.33 19.7472 1113.57 22.1135L1113.24 22.3906C1112.56 22.9229 1111.57 22.798 1111.04 22.1128C1110.51 21.4277 1110.63 20.4395 1111.31 19.9072L1111.54 19.7306C1113.51 18.039 1114.31 15.1033 1114.24 12.0625C1114.17 8.91294 1113.17 5.71714 1111.55 3.64143L1111.3 3.3386Z" fill="#96612D"/>
<path fill-rule="evenodd" clip-rule="evenodd" d="M102.7 3.3386C102.137 2.67881 102.215 1.69009 102.873 1.12707C103.53 0.565523 104.521 0.641224 105.082 1.30049L105.428 1.71684C107.44 4.30857 108.688 8.20607 108.774 11.9939C108.862 15.894 107.732 19.7472 104.974 22.1135L104.644 22.3906C103.959 22.9229 102.971 22.798 102.439 22.1128C101.907 21.4277 102.03 20.4395 102.715 19.9072L102.938 19.7306C104.907 18.039 105.71 15.1033 105.64 12.0625C105.569 8.91294 104.568 5.71714 102.951 3.64143L102.7 3.3386Z" fill="#96612D"/>
<path fill-rule="evenodd" clip-rule="evenodd" d="M606.999 3.3386C606.436 2.67881 606.514 1.69009 607.172 1.12707C607.828 0.565523 608.82 0.641224 609.381 1.30049L609.727 1.71684C611.739 4.30857 612.987 8.20607 613.073 11.9939C613.16 15.894 612.031 19.7472 609.273 22.1135L608.943 22.3906C608.258 22.9229 607.27 22.798 606.738 22.1128C606.206 21.4277 606.329 20.4395 607.014 19.9072L607.236 19.7306C609.206 18.039 610.009 15.1033 609.939 12.0625C609.867 8.91294 608.866 5.71714 607.25 3.64143L606.999 3.3386Z" fill="#96612D"/>
<path fill-rule="evenodd" clip-rule="evenodd" d="M326.834 3.3386C326.271 2.67881 326.349 1.69009 327.007 1.12707C327.663 0.565523 328.655 0.641224 329.216 1.30049L329.562 1.71684C331.574 4.30857 332.821 8.20607 332.907 11.9939C332.995 15.894 331.866 19.7472 329.108 22.1135L328.778 22.3906C328.093 22.9229 327.105 22.798 326.573 22.1128C326.041 21.4277 326.164 20.4395 326.849 19.9072L327.071 19.7306C329.041 18.039 329.844 15.1033 329.774 12.0625C329.702 8.91294 328.701 5.71714 327.085 3.64143L326.834 3.3386Z" fill="#96612D"/>
<path fill-rule="evenodd" clip-rule="evenodd" d="M831.133 3.3386C830.57 2.67881 830.648 1.69009 831.305 1.12707C831.962 0.565523 832.953 0.641224 833.515 1.30049L833.861 1.71684C835.872 4.30857 837.12 8.20607 837.206 11.9939C837.294 15.894 836.164 19.7472 833.406 22.1135L833.077 22.3906C832.392 22.9229 831.404 22.798 830.872 22.1128C830.339 21.4277 830.463 20.4395 831.148 19.9072L831.37 19.7306C833.34 18.039 834.142 15.1033 834.073 12.0625C834.001 8.91294 833 5.71714 831.384 3.64143L831.133 3.3386Z" fill="#96612D"/>
<path fill-rule="evenodd" clip-rule="evenodd" d="M1223.37 3.3386C1222.8 2.67881 1222.88 1.69009 1223.54 1.12707C1224.2 0.565523 1225.19 0.641224 1225.75 1.30049L1226.1 1.71684C1228.11 4.30857 1229.35 8.20607 1229.44 11.9939C1229.53 15.894 1228.4 19.7472 1225.64 22.1135L1225.31 22.3906C1224.63 22.9229 1223.64 22.798 1223.11 22.1128C1222.57 21.4277 1222.7 20.4395 1223.38 19.9072L1223.6 19.7306C1225.57 18.039 1226.38 15.1033 1226.31 12.0625C1226.24 8.91294 1225.23 5.71714 1223.62 3.64143L1223.37 3.3386Z" fill="#96612D"/>
<path fill-rule="evenodd" clip-rule="evenodd" d="M46.6681 3.3386C46.1051 2.67881 46.1832 1.69009 46.8405 1.12707C47.4973 0.565523 48.4886 0.641224 49.0501 1.30049L49.396 1.71684C51.4076 4.30857 52.6555 8.20607 52.7415 11.9939C52.8293 15.894 51.6996 19.7472 48.9416 22.1135L48.612 22.3906C47.9268 22.9229 46.9392 22.798 46.4069 22.1128C45.8745 21.4277 45.9979 20.4395 46.6831 19.9072L46.9054 19.7306C48.875 18.039 49.6775 15.1033 49.6077 12.0625C49.5364 8.91294 48.5353 5.71714 46.9191 3.64143L46.6681 3.3386Z" fill="#96612D"/>
<path fill-rule="evenodd" clip-rule="evenodd" d="M550.967 3.3386C550.404 2.67881 550.482 1.69009 551.139 1.12707C551.796 0.565523 552.787 0.641224 553.349 1.30049L553.695 1.71684C555.706 4.30857 556.954 8.20607 557.04 11.9939C557.128 15.894 555.998 19.7472 553.24 22.1135L552.911 22.3906C552.226 22.9229 551.238 22.798 550.706 22.1128C550.173 21.4277 550.297 20.4395 550.982 19.9072L551.204 19.7306C553.174 18.039 553.976 15.1033 553.907 12.0625C553.835 8.91294 552.834 5.71714 551.218 3.64143L550.967 3.3386Z" fill="#96612D"/>
<path fill-rule="evenodd" clip-rule="evenodd" d="M270.801 3.3386C270.238 2.67881 270.316 1.69009 270.973 1.12707C271.63 0.565523 272.621 0.641224 273.183 1.30049L273.529 1.71684C275.54 4.30857 276.788 8.20607 276.874 11.9939C276.962 15.894 275.832 19.7472 273.074 22.1135L272.745 22.3906C272.06 22.9229 271.072 22.798 270.54 22.1128C270.007 21.4277 270.131 20.4395 270.816 19.9072L271.038 19.7306C273.008 18.039 273.81 15.1033 273.741 12.0625C273.669 8.91294 272.668 5.71714 271.052 3.64143L270.801 3.3386Z" fill="#96612D"/>
<path fill-rule="evenodd" clip-rule="evenodd" d="M775.1 3.3386C774.537 2.67881 774.615 1.69009 775.272 1.12707C775.929 0.565523 776.92 0.641224 777.482 1.30049L777.828 1.71684C779.839 4.30857 781.087 8.20607 781.173 11.9939C781.261 15.894 780.131 19.7472 777.373 22.1135L777.044 22.3906C776.358 22.9229 775.371 22.798 774.838 22.1128C774.306 21.4277 774.43 20.4395 775.115 19.9072L775.337 19.7306C777.307 18.039 778.109 15.1033 778.039 12.0625C777.968 8.91294 776.967 5.71714 775.351 3.64143L775.1 3.3386Z" fill="#96612D"/>
<path fill-rule="evenodd" clip-rule="evenodd" d="M1167.33 3.3386C1166.77 2.67881 1166.85 1.69009 1167.51 1.12707C1168.16 0.565523 1169.15 0.641224 1169.72 1.30049L1170.06 1.71684C1172.07 4.30857 1173.32 8.20607 1173.41 11.9939C1173.5 15.894 1172.37 19.7472 1169.61 22.1135L1169.28 22.3906C1168.59 22.9229 1167.61 22.798 1167.07 22.1128C1166.54 21.4277 1166.66 20.4395 1167.35 19.9072L1167.57 19.7306C1169.54 18.039 1170.34 15.1033 1170.27 12.0625C1170.2 8.91294 1169.2 5.71714 1167.59 3.64143L1167.33 3.3386Z" fill="#96612D"/>
<path fill-rule="evenodd" clip-rule="evenodd" d="M158.733 3.3386C158.17 2.67881 158.248 1.69009 158.905 1.12707C159.562 0.565523 160.553 0.641224 161.115 1.30049L161.46 1.71684C163.472 4.30857 164.72 8.20607 164.806 11.9939C164.894 15.894 163.764 19.7472 161.006 22.1135L160.676 22.3906C159.991 22.9229 159.004 22.798 158.471 22.1128C157.939 21.4277 158.062 20.4395 158.748 19.9072L158.97 19.7306C160.939 18.039 161.742 15.1033 161.672 12.0625C161.601 8.91294 160.6 5.71714 158.984 3.64143L158.733 3.3386Z" fill="#96612D"/>
<path fill-rule="evenodd" clip-rule="evenodd" d="M663.031 3.3386C662.468 2.67881 662.546 1.69009 663.204 1.12707C663.861 0.565523 664.852 0.641224 665.413 1.30049L665.759 1.71684C667.771 4.30857 669.019 8.20607 669.105 11.9939C669.193 15.894 668.063 19.7472 665.305 22.1135L664.975 22.3906C664.29 22.9229 663.302 22.798 662.77 22.1128C662.238 21.4277 662.361 20.4395 663.046 19.9072L663.269 19.7306C665.238 18.039 666.041 15.1033 665.971 12.0625C665.9 8.91294 664.899 5.71714 663.282 3.64143L663.031 3.3386Z" fill="#96612D"/>
<path fill-rule="evenodd" clip-rule="evenodd" d="M1055.27 3.3386C1054.7 2.67881 1054.78 1.69009 1055.44 1.12707C1056.09 0.565523 1057.09 0.641224 1057.65 1.30049L1057.99 1.71684C1060.01 4.30857 1061.25 8.20607 1061.34 11.9939C1061.43 15.894 1060.3 19.7472 1057.54 22.1135L1057.21 22.3906C1056.52 22.9229 1055.54 22.798 1055 22.1128C1054.47 21.4277 1054.6 20.4395 1055.28 19.9072L1055.5 19.7306C1057.47 18.039 1058.28 15.1033 1058.21 12.0625C1058.13 8.91294 1057.13 5.71714 1055.52 3.64143L1055.27 3.3386Z" fill="#96612D"/>
<path fill-rule="evenodd" clip-rule="evenodd" d="M382.867 3.3386C382.304 2.67881 382.382 1.69009 383.04 1.12707C383.697 0.565523 384.688 0.641224 385.249 1.30049L385.595 1.71684C387.607 4.30857 388.855 8.20607 388.941 11.9939C389.029 15.894 387.899 19.7472 385.141 22.1135L384.811 22.3906C384.126 22.9229 383.138 22.798 382.606 22.1128C382.074 21.4277 382.197 20.4395 382.882 19.9072L383.105 19.7306C385.074 18.039 385.877 15.1033 385.807 12.0625C385.736 8.91294 384.735 5.71714 383.118 3.64143L382.867 3.3386Z" fill="#96612D"/>
<path fill-rule="evenodd" clip-rule="evenodd" d="M887.166 3.3386C886.603 2.67881 886.681 1.69009 887.339 1.12707C887.995 0.565523 888.987 0.641224 889.548 1.30049L889.894 1.71684C891.906 4.30857 893.154 8.20607 893.24 11.9939C893.327 15.894 892.198 19.7472 889.44 22.1135L889.11 22.3906C888.425 22.9229 887.437 22.798 886.905 22.1128C886.373 21.4277 886.496 20.4395 887.181 19.9072L887.403 19.7306C889.373 18.039 890.176 15.1033 890.106 12.0625C890.034 8.91294 889.033 5.71714 887.417 3.64143L887.166 3.3386Z" fill="#96612D"/>
<path fill-rule="evenodd" clip-rule="evenodd" d="M1279.4 3.3386C1278.84 2.67881 1278.92 1.69009 1279.57 1.12707C1280.23 0.565523 1281.22 0.641224 1281.78 1.30049L1282.13 1.71684C1284.14 4.30857 1285.39 8.20607 1285.47 11.9939C1285.56 15.894 1284.43 19.7472 1281.67 22.1135L1281.34 22.3906C1280.66 22.9229 1279.67 22.798 1279.14 22.1128C1278.61 21.4277 1278.73 20.4395 1279.42 19.9072L1279.64 19.7306C1281.61 18.039 1282.41 15.1033 1282.34 12.0625C1282.27 8.91294 1281.27 5.71714 1279.65 3.64143L1279.4 3.3386Z" fill="#96612D"/>
<path fill-rule="evenodd" clip-rule="evenodd" d="M438.9 3.3386C438.338 2.67881 438.416 1.69009 439.073 1.12707C439.73 0.565523 440.721 0.641224 441.282 1.30049L441.628 1.71684C443.64 4.30857 444.888 8.20607 444.974 11.9939C445.062 15.894 443.932 19.7472 441.174 22.1135L440.844 22.3906C440.159 22.9229 439.172 22.798 438.639 22.1128C438.107 21.4277 438.23 20.4395 438.916 19.9072L439.138 19.7306C441.107 18.039 441.91 15.1033 441.84 12.0625C441.769 8.91294 440.768 5.71714 439.152 3.64143L438.9 3.3386Z" fill="#96612D"/>
<path fill-rule="evenodd" clip-rule="evenodd" d="M943.199 3.3386C942.636 2.67881 942.714 1.69009 943.372 1.12707C944.029 0.565523 945.02 0.641224 945.581 1.30049L945.927 1.71684C947.939 4.30857 949.187 8.20607 949.273 11.9939C949.361 15.894 948.231 19.7472 945.473 22.1135L945.143 22.3906C944.458 22.9229 943.47 22.798 942.938 22.1128C942.406 21.4277 942.529 20.4395 943.214 19.9072L943.437 19.7306C945.406 18.039 946.209 15.1033 946.139 12.0625C946.068 8.91294 945.067 5.71714 943.45 3.64143L943.199 3.3386Z" fill="#96612D"/>
<path fill-rule="evenodd" clip-rule="evenodd" d="M1335.43 3.3386C1334.87 2.67881 1334.95 1.69009 1335.61 1.12707C1336.26 0.565523 1337.25 0.641224 1337.82 1.30049L1338.16 1.71684C1340.17 4.30857 1341.42 8.20607 1341.51 11.9939C1341.59 15.894 1340.47 19.7472 1337.71 22.1135L1337.38 22.3906C1336.69 22.9229 1335.7 22.798 1335.17 22.1128C1334.64 21.4277 1334.76 20.4395 1335.45 19.9072L1335.67 19.7306C1337.64 18.039 1338.44 15.1033 1338.37 12.0625C1338.3 8.91294 1337.3 5.71714 1335.68 3.64143L1335.43 3.3386Z" fill="#96612D"/>
<path fill-rule="evenodd" clip-rule="evenodd" d="M494.935 3.3386C494.372 2.67881 494.45 1.69009 495.107 1.12707C495.764 0.565523 496.755 0.641224 497.317 1.30049L497.663 1.71684C499.674 4.30857 500.922 8.20607 501.008 11.9939C501.096 15.894 499.966 19.7472 497.208 22.1135L496.879 22.3906C496.193 22.9229 495.206 22.798 494.673 22.1128C494.141 21.4277 494.265 20.4395 494.95 19.9072L495.172 19.7306C497.142 18.039 497.944 15.1033 497.874 12.0625C497.803 8.91294 496.802 5.71714 495.186 3.64143L494.935 3.3386Z" fill="#96612D"/>
<path fill-rule="evenodd" clip-rule="evenodd" d="M999.233 3.3386C998.671 2.67881 998.749 1.69009 999.406 1.12707C1000.06 0.565523 1001.05 0.641224 1001.62 1.30049L1001.96 1.71684C1003.97 4.30857 1005.22 8.20607 1005.31 11.9939C1005.39 15.894 1004.27 19.7472 1001.51 22.1135L1001.18 22.3906C1000.49 22.9229 999.505 22.798 998.972 22.1128C998.44 21.4277 998.563 20.4395 999.249 19.9072L999.471 19.7306C1001.44 18.039 1002.24 15.1033 1002.17 12.0625C1002.1 8.91294 1001.1 5.71714 999.485 3.64143L999.233 3.3386Z" fill="#96612D"/>
<path fill-rule="evenodd" clip-rule="evenodd" d="M1391.47 3.3386C1390.9 2.67881 1390.98 1.69009 1391.64 1.12707C1392.3 0.565523 1393.29 0.641224 1393.85 1.30049L1394.2 1.71684C1396.21 4.30857 1397.46 8.20607 1397.54 11.9939C1397.63 15.894 1396.5 19.7472 1393.74 22.1135L1393.41 22.3906C1392.73 22.9229 1391.74 22.798 1391.21 22.1128C1390.67 21.4277 1390.8 20.4395 1391.48 19.9072L1391.71 19.7306C1393.67 18.039 1394.48 15.1033 1394.41 12.0625C1394.34 8.91294 1393.34 5.71714 1391.72 3.64143L1391.47 3.3386Z" fill="#96612D"/>
</svg>
